<?xml version="1.0" standalone="no"?>
<!DOCTYPE svg PUBLIC "-//W3C//DTD SVG 1.1//EN" "http://www.w3.org/Graphics/SVG/1.1/DTD/svg11.dtd" >
<svg xmlns="http://www.w3.org/2000/svg" xmlns:xlink="http://www.w3.org/1999/xlink" version="1.1">
<metadata>
Created by FontForge 20170731 at Thu Sep 20 21:31:38 2018
 By Aleksey,,,
Copyright (c) 2018 by Fontastica. All rights reserved.
</metadata>
<defs>
<font id="Signal-Normal" horiz-adv-x="0" >
  <font-face 
    font-family="Signal Normal"
    font-weight="400"
    font-stretch="normal"
    units-per-em="1066"
    panose-1="0 0 5 0 0 0 0 0 0 0"
    ascent="800"
    descent="-266"
    x-height="741"
    cap-height="741"
    bbox="-844 -195 1041 800"
    underline-thickness="50"
    underline-position="-200"
    unicode-range="U+0020-2265"
  />
<missing-glyph horiz-adv-x="549" 
 />
    <glyph glyph-name=".notdef" horiz-adv-x="549" 
 />
    <glyph glyph-name=".null" 
 />
    <glyph glyph-name="nonmarkingreturn" horiz-adv-x="355" 
 />
    <glyph glyph-name="uni0020" unicode=" " horiz-adv-x="484" 
 />
    <glyph glyph-name="uni0021" unicode="!" horiz-adv-x="358" 
d="M179 58q35 0 35 -34q0 -15 -10 -25q-10 -9 -25 -9q-14 0 -24 10q-11 11 -11 24t11 24q10 10 24 10zM209 88h-60v653h60v-653z" />
    <glyph glyph-name="uni0022" unicode="&#x22;" horiz-adv-x="399" 
d="M148 741q14 0 25 -8t11 -23q0 -1 -2 -21q-4 -22 -6 -34q-3 -11 -7 -33q-1 -7 -3 -16l-2 -8v-2h-31v2l-2 8q-2 9 -3 16l-6 33q-5 18 -6 34q-3 15 -3 21q0 13 12 22q10 9 23 9zM251 741q13 0 24 -8q11 -9 11 -23q0 -1 -2 -21q-4 -22 -7 -34l-6 -33q-1 -7 -3 -16l-2 -8v-2
h-31v2l-2 8q-2 9 -3 16q-4 22 -7 33q-4 25 -5 34q-3 15 -3 21q0 14 12 23q11 8 24 8z" />
    <glyph glyph-name="uni0023" unicode="#" horiz-adv-x="738" 
d="M628 430h-107l-44 -142h108l-20 -58h-105l-41 -135h-66l42 135h-133l-42 -135h-64l42 135h-105l17 58h105l45 142h-107l20 58h104l47 153h66l-49 -153h133l47 153h65l-47 -153h106zM412 288l44 142h-131l-45 -142h132z" />
    <glyph glyph-name="uni0024" unicode="$" horiz-adv-x="931" 
d="M486 -51h-54v84q-38 2 -70 7q-32 4 -72 16q-37 11 -67 27q-31 15 -58 41q-16 14 -29 39q-14 26 -14 46q0 5 7 8q10 4 16 5q3 0 9 1t9 1h12h1l1 -1q5 -5 6 -12q3 -6 6 -15q10 -30 40 -50q27 -20 65 -34q30 -11 74 -20q33 -6 64 -10v282q-16 4 -41 7q-12 2 -46 8
q-28 5 -69 17q-38 11 -67 28q-32 18 -51 46q-21 29 -21 68q0 51 31 85q30 35 75 54q47 20 96 29q46 8 90 10v78h62v-79q65 -3 128 -21q64 -20 110 -65q18 -16 28 -38q7 -20 8 -26t8 -26l1 -3h-64l1 3v5q1 1 1 5q0 7 -8 21q-9 12 -15 18q-21 23 -43 35q-21 12 -50 22
q-36 10 -54 14q-19 3 -55 9v-262q43 -5 62 -7q23 -3 69 -13q31 -7 69 -20q37 -15 59 -32q23 -18 41 -47q16 -26 16 -64q0 -53 -34 -87q-35 -35 -83 -57q-49 -22 -104 -33q-60 -11 -96 -14v-83zM431 668q-26 -1 -67 -9q-41 -9 -77 -25q-40 -18 -64 -40q-27 -24 -27 -56
q0 -17 11 -33q12 -17 26 -26q19 -14 35 -20q31 -12 35 -13q20 -6 35 -8q5 -2 17 -5t17 -4l30 -9q13 -4 29 -6v254zM487 82q25 2 75 11q42 7 83 24q39 16 68 42q28 25 28 62q0 24 -12 42q-15 20 -32 32q-18 12 -42 22q-25 10 -44 14q-18 6 -29 7q-21 2 -30 5q-2 0 -4 1
t-5.5 2t-5.5 2q-4 0 -10 2t-10 2q-4 1 -9.5 2.5t-7.5 1.5q-8 2 -13 0v-274z" />
    <glyph glyph-name="uni0026" unicode="&#x26;" horiz-adv-x="962" 
d="M773 10l-1 1q-20 20 -41 38l-42 36q-63 -46 -128 -66q-64 -21 -143 -21q-45 0 -88 10q-48 11 -83 32q-37 22 -60 57q-24 35 -24 86q0 42 18 75q19 35 46 59q28 26 62 47q54 30 67 37v1q-12 12 -38 42q-20 22 -36 48q-17 27 -27 53q-11 28 -11 55q0 41 20 70t50 45
q30 17 67 24q35 7 72 7q36 0 71 -7q39 -8 66 -23q31 -17 50 -43t19 -68q0 -43 -22 -75q-24 -35 -55 -59q-33 -25 -72 -45q-50 -25 -73 -35q54 -55 122 -120q85 -81 125 -118q13 18 23 35q11 16 21 36q1 1 1 2t0.5 1.5t0.5 1.5l1 2q1 1 1 2l3 9q1 2 2 5t2 5q2 6 5 9l1 1
l49 -11v-2q-3 -15 -13 -36q-9 -20 -18 -34q-10 -17 -19 -31q-3 -4 -20 -31q2 -2 5 -4.5t6.5 -5t5.5 -4.5q3 -2 8.5 -7t7.5 -8q7 -5 19 -17q9 -10 19 -19l21 -18q4 -4 10.5 -11t9.5 -10l3 -3h-66zM302 600q0 -18 11 -43q9 -20 28 -48q17 -25 34 -46q18 -23 31 -37
q36 18 54 26q27 12 51 27q12 6 32 23q13 11 29 30q14 17 21 35q8 19 8 38q0 29 -13 48q-12 17 -35 32q-23 12 -48 18q-30 5 -52 5q-25 0 -52 -6q-28 -6 -49 -19q-22 -13 -36 -33q-14 -22 -14 -50zM333 334q-14 -9 -40 -27q-19 -15 -33 -33q-15 -18 -24 -39q-9 -23 -9 -49
q0 -39 19 -64q17 -26 47 -43q28 -16 65 -24t68 -8q61 0 118 20q54 19 105 54q-90 84 -130 122q-43 41 -131 123q-53 -30 -55 -32z" />
    <glyph glyph-name="uni0027" unicode="'" horiz-adv-x="297" 
d="M148 741q14 0 25 -8t11 -23q0 -1 -2 -21q-4 -22 -6 -34q-3 -11 -7 -33q-1 -7 -3 -16l-2 -8v-2h-31v2l-2 8q-2 9 -3 16l-6 33q-5 18 -6 34q-3 15 -3 21q0 13 12 22q10 9 23 9z" />
    <glyph glyph-name="uni0028" unicode="(" horiz-adv-x="317" 
d="M170 795l3 5h61l-1 -3q-25 -49 -41 -99q-18 -53 -30 -110q-12 -54 -18 -112q-6 -56 -6 -107q0 -101 23 -211q23 -111 67 -203l6 -13h-61l-3 5q-19 43 -37 99q-19 60 -28 108q-12 63 -17 110q-6 56 -6 105q0 111 22 217q21 109 66 209z" />
    <glyph glyph-name="uni0029" unicode=")" horiz-adv-x="317" 
d="M89 787l-7 13h63l2 -5q45 -100 66 -208t21 -218q0 -107 -21 -214q-22 -107 -66 -208l-2 -5h-63l7 13q44 96 67 203q22 103 22 211q0 110 -22 214q-23 108 -67 204z" />
    <glyph glyph-name="uni002A" unicode="*" horiz-adv-x="557" 
d="M113 518l121 58l-121 58l31 49l112 -70l-8 128h61l-9 -128l114 71l29 -50l-119 -58l119 -58l-29 -50l-114 70l9 -128h-61l8 128l-112 -70z" />
    <glyph glyph-name="uni002B" unicode="+" horiz-adv-x="831" 
d="M113 397h273v244h60v-244h272v-58h-272v-244h-60v244h-273v58z" />
    <glyph glyph-name="uni002C" unicode="," horiz-adv-x="296" 
d="M148 58q20 0 28 -12q7 -11 7 -30q0 -3 -1 -4v-2q0 -2 -1 -3l-18 -95h-34v84q-6 4 -11 13q-5 8 -5 15q0 13 11 24q10 10 24 10z" />
    <glyph glyph-name="uni002D" unicode="-" horiz-adv-x="622" 
d="M508 342h-395v58h395v-58z" />
    <glyph glyph-name="uni002E" unicode="." horiz-adv-x="296" 
d="M148 58q35 0 35 -34q0 -15 -10 -25q-11 -9 -25 -9t-24 10q-11 11 -11 24t11 24q10 10 24 10z" />
    <glyph glyph-name="uni002F" unicode="/" horiz-adv-x="524" 
d="M95 -195h-67l402 936h65z" />
    <glyph glyph-name="uni0030" unicode="0" horiz-adv-x="779" 
d="M165 539q0 45 18 86q17 39 48 69q34 30 72 46q39 16 87 16q49 0 88 -16q40 -16 72 -45q30 -29 48 -69q17 -42 17 -87v-333q0 -46 -18 -85q-18 -41 -48 -69q-34 -30 -72 -46q-42 -17 -87 -17q-44 0 -86 17q-40 16 -72 47q-31 28 -49 69q-18 39 -18 84v333zM554 539
q0 35 -12 63q-14 30 -35 51q-22 20 -52 33q-30 12 -65 12q-34 0 -64 -12q-30 -11 -53 -33q-23 -23 -36 -51q-13 -27 -13 -63v-333q0 -32 14 -62q14 -29 36 -50q22 -22 52 -34q29 -13 64 -13t64 13q31 13 52 34q20 19 35 50q13 27 13 62v333z" />
    <glyph glyph-name="uni0031" unicode="1" horiz-adv-x="582" 
d="M417 0h-59v668l-205 -113l-29 51l241 132q1 0 4.5 1.5t5.5 2.5q3 1 9 1q34 0 34 -34z" />
    <glyph glyph-name="uni0032" unicode="2" horiz-adv-x="810" 
d="M505 363q37 34 60 70q24 37 24 87q0 39 -13 66q-14 30 -35 48q-23 20 -54 30q-30 10 -67 10q-28 0 -58 -8q-31 -10 -52 -25q-23 -17 -38 -39q-16 -25 -20 -55v-2h-71v3q6 47 28 81q21 35 54 57q32 23 73 35q42 11 85 11q50 0 92 -13q45 -14 76 -38q31 -25 51 -65
q19 -38 19 -90q0 -33 -9 -60t-24 -52q-13 -20 -35 -46q-13 -15 -43 -43l-280 -263h400v-59h-485v61z" />
    <glyph glyph-name="uni0033" unicode="3" horiz-adv-x="763" 
d="M134 0v58h256q35 0 69 14q31 14 57 36q24 21 40 55q14 33 14 67q0 35 -14 68q-15 32 -39 56q-26 25 -57 38q-32 13 -70 13h-85q-14 0 -24 10q-11 9 -11 23q0 6 3 13t7 11l226 221h-372v58h431q35 0 35 -34q0 -14 -8 -22l-227 -223q23 0 59 -2q28 -3 57 -16
q66 -28 107 -85q41 -58 41 -129q0 -49 -19 -90q-19 -42 -52 -73q-32 -31 -76 -49t-92 -18h-256z" />
    <glyph glyph-name="uni0034" unicode="4" horiz-adv-x="781" 
d="M564 741v-432h109v-58h-109v-251h-59v251h-347q-15 0 -24 10q-10 9 -10 24q0 7 1 10q1 5 5 8l377 438h57zM505 659l-297 -350h297v350z" />
    <glyph glyph-name="uni0035" unicode="5" horiz-adv-x="753" 
d="M390 405h-215q-14 0 -24 10q-11 9 -11 23v303h452v-58h-393v-221h191q48 0 92 -18q45 -20 76 -50q32 -30 52 -74q19 -41 19 -90t-19 -90q-19 -42 -52 -73q-32 -31 -76 -49t-92 -18h-256v58h256q35 0 69 14q31 14 57 36q24 21 40 55q14 33 14 67q0 36 -14 69
q-15 32 -39 56q-28 25 -58 37q-32 13 -69 13z" />
    <glyph glyph-name="uni0036" unicode="6" horiz-adv-x="801" 
d="M401 -9q-53 0 -98 19q-50 21 -82 53q-37 34 -56 78q-21 45 -21 96q0 34 10 64q10 31 24 60l184 380h62l-137 -282q27 13 55 19q27 6 59 6q55 0 100 -19q47 -20 81 -52q34 -34 55 -79q20 -46 20 -97t-20 -97q-21 -44 -56 -78q-34 -32 -81 -52q-45 -19 -99 -19zM401 426
q-39 0 -76 -14q-37 -15 -63 -40t-43 -60q-16 -33 -16 -75q0 -40 16 -73q17 -35 43 -60q29 -27 63 -40q36 -15 76 -15q39 0 75 15q34 13 63 40q26 25 43 60q16 33 16 73q0 41 -15 75q-17 35 -43 60t-63 40q-37 14 -76 14z" />
    <glyph glyph-name="uni0037" unicode="7" horiz-adv-x="748" 
d="M621 689l-333 -689h-61l327 683h-430v58h467q34 0 34 -34q0 -11 -4 -18z" />
    <glyph glyph-name="uni0038" unicode="8" horiz-adv-x="781" 
d="M391 -11q-48 0 -93 18q-44 16 -79 48q-35 30 -54 72q-21 41 -21 90q0 67 35 120q35 54 96 82q-37 25 -60 66q-22 40 -22 85q0 41 16 74q16 34 43 59t63 39q37 14 76 14q42 0 77 -13t63 -38q27 -25 43 -59q16 -33 16 -76q0 -48 -21 -86q-22 -40 -61 -65q60 -28 95 -82
q34 -52 34 -120q0 -48 -20 -91q-21 -43 -55 -72q-34 -32 -78 -48q-46 -17 -93 -17zM530 571q0 28 -11 52t-30 40q-21 18 -44 26q-25 9 -54 9q-27 0 -52 -9q-25 -11 -45 -27q-19 -16 -30 -40q-12 -24 -12 -51t12 -50q11 -23 31 -40q21 -18 44 -26q24 -10 52 -10t52 10
q24 9 45 26q19 16 31 40q11 24 11 50zM391 388q-38 0 -71 -13q-37 -14 -60 -35q-26 -23 -41 -54q-16 -31 -16 -69q0 -36 16 -67q17 -32 43 -54t60 -36q32 -13 69 -13t70 13q34 12 60 35q25 23 42 54q15 32 15 68q0 37 -15 69q-17 33 -41 54q-26 22 -60 36q-35 12 -71 12z
" />
    <glyph glyph-name="uni0039" unicode="9" horiz-adv-x="801" 
d="M623 380l-182 -380h-63l137 282q-25 -12 -55 -18q-28 -6 -58 -6q-54 0 -99 19q-50 21 -82 53q-37 34 -56 78q-21 45 -21 97q0 51 21 96q21 44 56 78q33 31 82 52q45 19 99 19t99 -19q47 -20 81 -52t55 -78q20 -46 20 -96q0 -36 -9 -64q-14 -38 -25 -61zM402 692
q-39 0 -76 -14q-38 -15 -64 -40q-27 -25 -43 -59q-16 -33 -16 -74q0 -37 17 -73t44 -60q28 -26 63 -41q36 -15 75 -15q40 0 76 15q34 15 62 41q26 25 43 60q15 35 15 73q0 39 -15 74q-16 34 -43 59q-26 24 -62 40q-37 14 -76 14z" />
    <glyph glyph-name="uni003A" unicode=":" horiz-adv-x="451" 
d="M148 332q14 0 25 -9q10 -10 10 -25q0 -16 -9 -25q-10 -9 -26 -9q-14 0 -24 10q-11 9 -11 24q0 13 11 24q10 10 24 10zM148 58q35 0 35 -34q0 -15 -10 -25q-11 -9 -25 -9t-24 10q-11 11 -11 24t11 24q10 10 24 10z" />
    <glyph glyph-name="uni003B" unicode=";" horiz-adv-x="451" 
d="M148 331q14 0 25 -9q10 -10 10 -25t-10 -24q-10 -10 -25 -10q-14 0 -24 10q-11 9 -11 24q0 13 11 24q10 10 24 10zM148 58q20 0 28 -12q7 -11 7 -30q0 -3 -1 -4v-2q0 -2 -1 -3l-18 -95h-34v84q-6 4 -11 13q-5 8 -5 15q0 13 11 24q10 10 24 10z" />
    <glyph glyph-name="uni003C" unicode="&#x3c;" horiz-adv-x="836" 
d="M723 228v-71l-605 181q-25 7 -25 33q0 25 25 32l605 187v-69l-500 -149z" />
    <glyph glyph-name="uni003D" unicode="=" horiz-adv-x="796" 
d="M683 437h-570v58h570v-58zM683 261h-570v58h570v-58z" />
    <glyph glyph-name="uni003E" unicode="&#x3e;" horiz-adv-x="836" 
d="M113 228l499 144l-499 149v69l604 -187q13 -5 20 -11q6 -8 6 -21q0 -25 -26 -33l-604 -181v71z" />
    <glyph glyph-name="uni003F" unicode="?" horiz-adv-x="756" 
d="M403 58q0 -26 -18 -36q-19 -11 -41 -11q-20 0 -39 12q-20 12 -20 35q0 24 19 37q18 12 40 12q23 0 42 -11q17 -12 17 -38zM319 241q4 31 23 57q18 24 42 45q16 13 36 27q22 14 36 25q12 9 34 27q11 9 29 31q11 16 19 37q7 18 7 46q0 39 -16 67t-42 46q-25 18 -60 27
q-37 8 -69 8q-25 0 -52 -6t-51 -18q-23 -11 -44 -30q-22 -22 -31 -43q-7 -15 -10 -28l-2 -6l-1 -1h-57l1 3q4 16 6 23q1 9 6 20q13 34 39 60q24 23 57 40q31 16 69 24q34 7 70 7q48 0 91 -10t79 -34q33 -23 56 -60q21 -37 21 -89q0 -31 -7 -52q-8 -25 -19 -41
q-13 -20 -28 -33q-16 -14 -34 -28q-12 -9 -36 -25q-24 -18 -35 -27q-28 -22 -48 -53q-19 -31 -19 -69v-2h-64v2q1 5 3 17q0 11 1 16z" />
    <glyph glyph-name="uni0040" unicode="@" horiz-adv-x="1014" 
d="M494 564q45 0 80 -23q34 -25 59 -57v61h52v-223q0 -16 6 -31q5 -15 15 -27q8 -11 23 -19q14 -8 31 -8q26 0 44 15t28 36q11 21 15 46q4 23 4 46q0 76 -25 133q-26 59 -71 101q-46 43 -107 65q-62 22 -137 22q-73 0 -137 -23q-62 -22 -109 -66t-72 -103q-26 -61 -26 -134
q0 -71 24 -130q25 -60 67 -101q44 -44 103 -66q60 -24 133 -24q8 0 36 2q20 2 41 6q26 6 38 11q18 6 30 15l4 3v-42l-9 -9q-8 -2 -13 -5q-28 -11 -66 -19q-32 -7 -68 -7q-82 0 -148 28q-69 28 -116 76q-49 49 -76 116q-27 68 -27 146q0 83 29 153q29 68 81 117q53 49 123 74
q72 26 156 26q85 0 156 -25q71 -26 123 -72q52 -48 82 -115q29 -69 29 -153q0 -33 -7 -64t-25 -61q-16 -28 -44 -45q-27 -18 -65 -18q-41 0 -66 23q-24 21 -41 57q-28 -40 -66 -64q-37 -25 -91 -25q-40 0 -75 15q-33 14 -59 42q-23 23 -38 61q-14 36 -14 73q0 38 14 74
q15 38 38 61q23 24 59 40q35 15 75 15zM499 515q-28 0 -55 -11q-25 -10 -43 -30q-17 -19 -28 -45q-11 -27 -11 -54t11 -54q11 -26 28 -45q20 -21 43 -31q26 -12 55 -12q31 0 58 11q25 10 43 30q17 19 28 45q10 24 10 56t-10 56q-11 26 -28 45q-19 19 -43 29t-58 10z" />
    <glyph glyph-name="uni0041" unicode="A" horiz-adv-x="923" 
d="M170 0h-67l325 732q4 9 15 17q8 7 20 7q25 0 36 -24l321 -732h-67l-131 298h-319zM326 349h274l-137 310z" />
    <glyph glyph-name="uni0042" unicode="B" horiz-adv-x="911" 
d="M559 0h-356q-15 0 -26 11q-12 11 -12 25v669q0 16 11 27q10 9 27 9h324q43 0 81 -15t67 -41q29 -27 45 -63t16 -80q0 -48 -22 -91q-21 -41 -64 -71q54 -25 87 -70q30 -45 30 -107q0 -43 -16 -79q-17 -38 -44 -64q-27 -27 -66 -44q-36 -16 -82 -16zM224 683v-283h303
q30 0 58 11q27 11 48 30q20 20 32 45q11 27 11 56t-11 56q-12 25 -32 45q-21 19 -48 30q-26 10 -58 10h-303zM224 58h335q29 0 58 12q26 10 47 31t32 46q12 25 12 56q0 30 -11 57q-11 23 -32 44q-20 17 -48 28q-26 10 -58 10h-335v-284z" />
    <glyph glyph-name="uni0043" unicode="C" horiz-adv-x="989" 
d="M538 754q96 0 171 -37q77 -38 135 -109l1 -1l-44 -37l-1 2q-54 64 -115 95q-64 32 -147 32q-70 0 -130 -25q-62 -26 -107 -68q-46 -43 -72 -103q-27 -59 -27 -127q0 -67 27 -127q25 -61 72 -106q47 -47 107 -72q62 -27 130 -27q87 0 157 32q69 32 120 102l6 9l45 -35
l-5 -7q-61 -80 -141 -118q-82 -38 -182 -38q-83 0 -152 31q-73 32 -125 84q-53 52 -85 123q-32 72 -32 149q0 82 31 150q32 70 85 120q56 51 126 79q72 29 152 29z" />
    <glyph glyph-name="uni0044" unicode="D" horiz-adv-x="973" 
d="M436 741q81 0 152 -28q73 -30 125 -77q54 -51 85 -117t31 -148q0 -81 -31 -147q-32 -68 -85 -118q-54 -49 -125 -78q-71 -28 -152 -28h-233q-15 0 -26 11q-12 11 -12 25v669q0 16 11 27q10 9 27 9h233zM224 58h212q68 0 129 24q59 22 105 65q45 42 72 100q26 58 26 124
q0 67 -26 125q-27 57 -72 99q-46 41 -105 65q-63 23 -129 23h-212v-625z" />
    <glyph glyph-name="uni0045" unicode="E" horiz-adv-x="918" 
d="M723 400v-58h-499v-284h530v-58h-551q-15 0 -26 11q-12 11 -12 25v669q0 16 11 27q10 9 27 9h551v-58h-530v-283h499z" />
    <glyph glyph-name="uni0046" unicode="F" horiz-adv-x="867" 
d="M702 400v-58h-478v-342h-59v705q0 16 11 27q10 9 27 9h530v-58h-509v-283h478z" />
    <glyph glyph-name="uni0047" unicode="G" horiz-adv-x="1011" 
d="M861 145q-25 -40 -60 -68q-39 -30 -80 -48q-42 -19 -91 -30q-46 -10 -92 -10q-83 0 -152 31q-73 32 -125 84q-53 52 -85 123q-32 72 -32 149q0 82 31 150q32 70 85 120q56 51 126 79q72 29 152 29q96 0 171 -37q77 -38 135 -109l1 -1l-44 -37l-1 2q-54 64 -115 95
q-64 32 -147 32q-70 0 -130 -25q-62 -26 -107 -68q-46 -43 -72 -103q-27 -59 -27 -127q0 -67 27 -127q25 -61 72 -106q47 -47 107 -72q62 -27 130 -27q81 0 152 30q68 28 118 95v117h-297v56l356 -2v-174q0 -10 -6 -21z" />
    <glyph glyph-name="uni0048" unicode="H" horiz-adv-x="979" 
d="M755 0v342h-531v-342h-59v741h59v-341h531v341h59v-741h-59z" />
    <glyph glyph-name="uni0049" unicode="I" horiz-adv-x="340" 
d="M138 0v741h59v-741h-59z" />
    <glyph glyph-name="uni004A" unicode="J" horiz-adv-x="828" 
d="M169 199l1 -2q6 -17 16 -31q12 -19 21 -28q33 -36 78 -57t95 -21q43 0 85 17q39 16 71 45q31 28 49 67q18 38 18 83v469h60v-469q0 -58 -22 -106q-22 -49 -61 -86q-39 -38 -90 -57q-52 -21 -110 -21q-44 0 -85 12q-39 12 -75 35q-36 24 -62 55q-28 33 -44 72l-1 2z" />
    <glyph glyph-name="uni004B" unicode="K" horiz-adv-x="857" 
d="M224 406l428 335h98l-468 -367l472 -374h-97l-433 342v-342h-59v741h59v-335z" />
    <glyph glyph-name="uni004C" unicode="L" horiz-adv-x="877" 
d="M203 0q-15 0 -26 11q-12 11 -12 25v705h59v-683h509v-58h-530z" />
    <glyph glyph-name="uni004D" unicode="M" horiz-adv-x="1046" 
d="M881 0h-59v639l-299 -473l-299 473v-639h-59v720q0 16 11 27q10 9 27 9q20 0 31 -17l289 -460l290 460q11 17 31 17q16 0 27 -9q10 -10 10 -27v-720z" />
    <glyph glyph-name="uni004E" unicode="N" horiz-adv-x="972" 
d="M767 -11q-19 0 -33 17l-510 653v-659h-59v717q0 17 12 28q11 11 28 11q21 0 34 -16l509 -657v658h59v-713q0 -16 -11 -29q-10 -10 -29 -10z" />
    <glyph glyph-name="uni004F" unicode="O" horiz-adv-x="1053" 
d="M527 755q81 0 154 -29q70 -28 125 -80q52 -51 84 -120q30 -69 30 -150q0 -80 -30 -150q-31 -69 -84 -122q-55 -53 -125 -83q-71 -31 -154 -31q-82 0 -151 31q-73 32 -125 84q-53 52 -85 123q-32 72 -32 148q0 81 31 150t84 120q53 52 125 80q73 29 153 29zM527 701
q-70 0 -130 -25q-61 -25 -106 -69q-46 -43 -72 -103q-27 -58 -27 -128q0 -67 27 -127q25 -61 72 -106q45 -46 106 -73t130 -27q71 0 132 27q60 26 105 72q46 46 71 106q25 59 25 128q0 70 -25 129q-26 59 -71 103q-44 42 -106 68q-60 25 -131 25z" />
    <glyph glyph-name="uni0050" unicode="P" horiz-adv-x="873" 
d="M495 741q54 0 99 -19q46 -19 81 -53q37 -37 55 -79q20 -48 20 -97q0 -51 -21 -95q-21 -43 -56 -75q-36 -32 -82 -48q-48 -17 -96 -17h-271v-258h-59v705q0 16 11 27q10 9 27 9h292zM224 316h271q40 0 75 13q35 14 62 36q25 22 42 56q15 31 15 72q0 39 -15 74
q-15 34 -41 60q-28 26 -62 41q-35 15 -76 15h-271v-367z" />
    <glyph glyph-name="uni0051" unicode="Q" horiz-adv-x="1033" 
d="M918 0h-72l-69 78q-109 -88 -250 -88q-82 0 -151 31q-73 32 -125 84q-53 52 -85 123q-32 72 -32 148q0 81 31 150t84 120q53 52 125 80q73 29 153 29q81 0 154 -29q70 -28 125 -80q52 -51 84 -120q30 -69 30 -150q0 -149 -104 -262zM740 120l-132 152l44 31l128 -144
q42 48 61 102q19 53 19 115q0 70 -25 129q-26 59 -71 103q-44 42 -106 68q-60 25 -131 25q-70 0 -130 -25q-61 -25 -106 -69q-46 -43 -72 -103q-27 -58 -27 -128q0 -67 27 -127q25 -61 72 -106q45 -46 106 -73t130 -27q121 0 213 77z" />
    <glyph glyph-name="uni0052" unicode="R" horiz-adv-x="903" 
d="M693 0l-208 288h-261v-288h-59v705q0 16 11 27q10 9 27 9h309q50 0 94 -18q45 -20 76 -50q31 -31 51 -74q18 -44 18 -92q0 -43 -15 -81q-14 -36 -42 -65q-26 -28 -63 -46q-37 -19 -80 -25l212 -290h-70zM224 683v-338h288q36 0 69 12q32 12 56 33t39 51q14 31 14 66
t-14 68q-14 31 -38 56q-24 24 -56 38q-34 14 -70 14h-288z" />
    <glyph glyph-name="uni0053" unicode="S" horiz-adv-x="957" 
d="M172 115l2 -1q72 -35 139 -50t146 -15q25 0 56 3q34 3 64 10q37 9 65 19q28 9 56 29q23 16 39 41q15 23 15 54q0 39 -18 64q-19 25 -47 41q-27 16 -61 25q-36 8 -65 12q-30 5 -92 11t-92 9q-42 6 -86 17q-41 10 -72 30q-32 20 -49 50q-18 31 -18 79q0 42 16 73
q14 30 41 55q24 21 61 39q33 14 71 25q33 8 75 13q33 4 70 4q63 0 123 -9q65 -12 119 -32q15 -6 17 -7t17 -7h4q1 -1 3 -1l2 -1l-20 -55l-3 1q-24 13 -59 25q-22 7 -68 17q-34 6 -70 9q-46 2 -65 2q-38 0 -84 -6q-50 -6 -90 -22q-41 -16 -71 -46q-29 -31 -29 -77
q0 -38 19 -60q20 -23 52 -35q29 -13 76 -19q56 -8 91 -11q15 -1 48 -4.5t50 -5.5q46 -4 94 -17q40 -11 69 -25q32 -15 54 -37q21 -21 35 -52q12 -31 12 -72q0 -42 -17 -74t-45 -56q-27 -22 -65 -40q-32 -14 -76 -26q-34 -9 -79 -14q-36 -4 -73 -4q-48 0 -81 4q-42 5 -76 13
q-36 7 -73 21q-36 11 -76 30l-9 4z" />
    <glyph glyph-name="uni0054" unicode="T" horiz-adv-x="939" 
d="M499 0h-60v683h-295v58h651v-58h-296v-683z" />
    <glyph glyph-name="uni0055" unicode="U" horiz-adv-x="970" 
d="M165 741h59v-433q0 -53 22 -97q21 -45 57 -78q34 -32 83 -53q48 -20 99 -20q52 0 100 20q49 21 83 53q36 33 57 78t21 97v433h59v-433q0 -67 -25 -121q-26 -57 -69 -97q-45 -42 -102 -64q-59 -24 -124 -24q-63 0 -122 24t-102 66q-44 41 -70 97q-26 57 -26 119v433z" />
    <glyph glyph-name="uni0056" unicode="V" horiz-adv-x="1006" 
d="M471 13l-327 728h65l295 -662l293 662h65l-322 -728q-4 -11 -13 -18q-7 -6 -23 -6q-13 0 -20 7q-10 10 -13 17z" />
    <glyph glyph-name="uni0057" unicode="W" horiz-adv-x="1185" 
d="M824 9l-232 459l-231 -459q-11 -20 -34 -20q-13 0 -23 7t-13 21l-147 724h59l132 -658l257 504l259 -504l131 658h59l-146 -724q-3 -14 -13 -21t-24 -7q-23 0 -34 20z" />
    <glyph glyph-name="uni0058" unicode="X" horiz-adv-x="865" 
d="M692 0l-259 326l-261 -326h-69l295 371l-295 370h69l261 -326l259 326h70l-294 -370l294 -371h-70z" />
    <glyph glyph-name="uni0059" unicode="Y" horiz-adv-x="953" 
d="M202 741l275 -444l273 444h69l-313 -504v-237h-59v237l-313 504h68z" />
    <glyph glyph-name="uni005A" unicode="Z" horiz-adv-x="937" 
d="M153 59l552 624h-550v58h601q16 0 26 -10q11 -11 11 -26q0 -9 -1 -12q-1 -2 -8 -11l-551 -624h556v-58h-607q-16 0 -27 11t-11 26q0 11 9 22z" />
    <glyph glyph-name="uni005B" unicode="[" horiz-adv-x="450" 
d="M336 -1v-58h-185q-16 0 -27 11t-11 26v786q0 15 11 26q10 10 27 10h185v-58h-163v-743h163z" />
    <glyph glyph-name="uni005C" unicode="\" horiz-adv-x="685" 
d="M257 741l401 -936h-66l-401 936h66z" />
    <glyph glyph-name="uni005D" unicode="]" horiz-adv-x="450" 
d="M336 -22q0 -17 -10 -27t-27 -10h-186v58h164v743h-164v58h186q17 0 27 -9q10 -10 10 -27v-786z" />
    <glyph glyph-name="uni005E" unicode="^" horiz-adv-x="652" 
d="M295 725l91 -159h-64l-72 126l-71 -126h-66l93 159q7 16 29 16h28q10 0 19 -3q9 -6 13 -13z" />
    <glyph glyph-name="uni005F" unicode="_" horiz-adv-x="753" 
d="M691 -146h-629v57h629v-57z" />
    <glyph glyph-name="uni0060" unicode="`" horiz-adv-x="426" 
d="M253 566h-63l-77 175h65z" />
    <glyph glyph-name="uni0061" unicode="a" horiz-adv-x="923" 
d="M170 0h-67l325 732q4 9 15 17q8 7 20 7q25 0 36 -24l321 -732h-67l-131 298h-319zM326 349h274l-137 310z" />
    <glyph glyph-name="uni0062" unicode="b" horiz-adv-x="911" 
d="M559 0h-356q-15 0 -26 11q-12 11 -12 25v669q0 16 11 27q10 9 27 9h324q43 0 81 -15t67 -41q29 -27 45 -63t16 -80q0 -48 -22 -91q-21 -41 -64 -71q54 -25 87 -70q30 -45 30 -107q0 -43 -16 -79q-17 -38 -44 -64q-27 -27 -66 -44q-36 -16 -82 -16zM224 683v-283h303
q30 0 58 11q27 11 48 30q20 20 32 45q11 27 11 56t-11 56q-12 25 -32 45q-21 19 -48 30q-26 10 -58 10h-303zM224 58h335q29 0 58 12q26 10 47 31t32 46q12 25 12 56q0 30 -11 57q-11 23 -32 44q-20 17 -48 28q-26 10 -58 10h-335v-284z" />
    <glyph glyph-name="uni0063" unicode="c" horiz-adv-x="989" 
d="M538 754q96 0 171 -37q77 -38 135 -109l1 -1l-44 -37l-1 2q-54 64 -115 95q-64 32 -147 32q-70 0 -130 -25q-62 -26 -107 -68q-46 -43 -72 -103q-27 -59 -27 -127q0 -67 27 -127q25 -61 72 -106q47 -47 107 -72q62 -27 130 -27q87 0 157 32q69 32 120 102l6 9l45 -35
l-5 -7q-61 -80 -141 -118q-82 -38 -182 -38q-83 0 -152 31q-73 32 -125 84q-53 52 -85 123q-32 72 -32 149q0 82 31 150q32 70 85 120q56 51 126 79q72 29 152 29z" />
    <glyph glyph-name="uni0064" unicode="d" horiz-adv-x="973" 
d="M436 741q81 0 152 -28q73 -30 125 -77q54 -51 85 -117t31 -148q0 -81 -31 -147q-32 -68 -85 -118q-54 -49 -125 -78q-71 -28 -152 -28h-233q-15 0 -26 11q-12 11 -12 25v669q0 16 11 27q10 9 27 9h233zM224 58h212q68 0 129 24q59 22 105 65q45 42 72 100q26 58 26 124
q0 67 -26 125q-27 57 -72 99q-46 41 -105 65q-63 23 -129 23h-212v-625z" />
    <glyph glyph-name="uni0065" unicode="e" horiz-adv-x="918" 
d="M723 400v-58h-499v-284h530v-58h-551q-15 0 -26 11q-12 11 -12 25v669q0 16 11 27q10 9 27 9h551v-58h-530v-283h499z" />
    <glyph glyph-name="uni0066" unicode="f" horiz-adv-x="867" 
d="M702 400v-58h-478v-342h-59v705q0 16 11 27q10 9 27 9h530v-58h-509v-283h478z" />
    <glyph glyph-name="uni0067" unicode="g" horiz-adv-x="1011" 
d="M861 145q-25 -40 -60 -68q-39 -30 -80 -48q-42 -19 -91 -30q-46 -10 -92 -10q-83 0 -152 31q-73 32 -125 84q-53 52 -85 123q-32 72 -32 149q0 82 31 150q32 70 85 120q56 51 126 79q72 29 152 29q96 0 171 -37q77 -38 135 -109l1 -1l-44 -37l-1 2q-54 64 -115 95
q-64 32 -147 32q-70 0 -130 -25q-62 -26 -107 -68q-46 -43 -72 -103q-27 -59 -27 -127q0 -67 27 -127q25 -61 72 -106q47 -47 107 -72q62 -27 130 -27q81 0 152 30q68 28 118 95v117h-297v56l356 -2v-174q0 -10 -6 -21z" />
    <glyph glyph-name="uni0068" unicode="h" horiz-adv-x="979" 
d="M755 0v342h-531v-342h-59v741h59v-341h531v341h59v-741h-59z" />
    <glyph glyph-name="uni0069" unicode="i" horiz-adv-x="340" 
d="M138 0v741h59v-741h-59z" />
    <glyph glyph-name="uni006A" unicode="j" horiz-adv-x="828" 
d="M169 199l1 -2q6 -17 16 -31q12 -19 21 -28q33 -36 78 -57t95 -21q43 0 85 17q39 16 71 45q31 28 49 67q18 38 18 83v469h60v-469q0 -58 -22 -106q-22 -49 -61 -86q-39 -38 -90 -57q-52 -21 -110 -21q-44 0 -85 12q-39 12 -75 35q-36 24 -62 55q-28 33 -44 72l-1 2z" />
    <glyph glyph-name="uni006B" unicode="k" horiz-adv-x="856" 
d="M750 741l-451 -367l454 -374h-96l-422 348q-4 2 -7 11q-2 5 -4 13v-372h-59v741h59v-361q1 13 11 21l417 340h98z" />
    <glyph glyph-name="uni006C" unicode="l" horiz-adv-x="877" 
d="M203 0q-15 0 -26 11q-12 11 -12 25v705h59v-683h509v-58h-530z" />
    <glyph glyph-name="uni006D" unicode="m" horiz-adv-x="1046" 
d="M881 0h-59v639l-299 -473l-299 473v-639h-59v720q0 16 11 27q10 9 27 9q20 0 31 -17l289 -460l290 460q11 17 31 17q16 0 27 -9q10 -10 10 -27v-720z" />
    <glyph glyph-name="uni006E" unicode="n" horiz-adv-x="972" 
d="M767 -11q-19 0 -33 17l-510 653v-659h-59v717q0 17 12 28q11 11 28 11q21 0 34 -16l509 -657v658h59v-713q0 -16 -11 -29q-10 -10 -29 -10z" />
    <glyph glyph-name="uni006F" unicode="o" horiz-adv-x="1053" 
d="M527 755q81 0 154 -29q70 -28 125 -80q52 -51 84 -120q30 -69 30 -150q0 -80 -30 -150q-31 -69 -84 -122q-55 -53 -125 -83q-71 -31 -154 -31q-82 0 -151 31q-73 32 -125 84q-53 52 -85 123q-32 72 -32 148q0 81 31 150t84 120q53 52 125 80q73 29 153 29zM527 701
q-70 0 -130 -25q-61 -25 -106 -69q-46 -43 -72 -103q-27 -58 -27 -128q0 -67 27 -127q25 -61 72 -106q45 -46 106 -73t130 -27q71 0 132 27q60 26 105 72q46 46 71 106q25 59 25 128q0 70 -25 129q-26 59 -71 103q-44 42 -106 68q-60 25 -131 25z" />
    <glyph glyph-name="uni0070" unicode="p" horiz-adv-x="873" 
d="M495 741q54 0 99 -19q46 -19 81 -53q37 -37 55 -79q20 -48 20 -97q0 -51 -21 -95q-21 -43 -56 -75q-36 -32 -82 -48q-48 -17 -96 -17h-271v-258h-59v705q0 16 11 27q10 9 27 9h292zM224 316h271q40 0 75 13q35 14 62 36q25 22 42 56q15 31 15 72q0 39 -15 74
q-15 34 -41 60q-28 26 -62 41q-35 15 -76 15h-271v-367z" />
    <glyph glyph-name="uni0071" unicode="q" horiz-adv-x="1033" 
d="M918 0h-72l-69 78q-109 -88 -250 -88q-82 0 -151 31q-73 32 -125 84q-53 52 -85 123q-32 72 -32 148q0 81 31 150t84 120q53 52 125 80q73 29 153 29q81 0 154 -29q70 -28 125 -80q52 -51 84 -120q30 -69 30 -150q0 -149 -104 -262zM740 120l-139 160h72l107 -121
q42 48 61 102q19 53 19 115q0 70 -25 129q-26 59 -71 103q-44 42 -106 68q-60 25 -131 25q-70 0 -130 -25q-61 -25 -106 -69q-46 -43 -72 -103q-27 -58 -27 -128q0 -67 27 -127q25 -61 72 -106q45 -46 106 -73t130 -27q121 0 213 77z" />
    <glyph glyph-name="uni0072" unicode="r" horiz-adv-x="903" 
d="M693 0l-208 288h-261v-288h-59v705q0 16 11 27q10 9 27 9h309q50 0 94 -18q45 -20 76 -50q31 -31 51 -74q18 -44 18 -92q0 -43 -15 -81q-14 -36 -42 -65q-26 -28 -63 -46q-37 -19 -80 -25l212 -290h-70zM224 683v-338h288q36 0 69 12q32 12 56 33t39 51q14 31 14 66
t-14 68q-14 31 -38 56q-24 24 -56 38q-34 14 -70 14h-288z" />
    <glyph glyph-name="uni0073" unicode="s" horiz-adv-x="957" 
d="M172 115l2 -1q72 -35 139 -50t146 -15q25 0 56 3q34 3 64 10q37 9 65 19q28 9 56 29q23 16 39 41q15 23 15 54q0 39 -18 64q-19 25 -47 41q-27 16 -61 25q-36 8 -65 12q-30 5 -92 11t-92 9q-42 6 -86 17q-41 10 -72 30q-32 20 -49 50q-18 31 -18 79q0 42 16 73
q14 30 41 55q24 21 61 39q33 14 71 25q33 8 75 13q33 4 70 4q63 0 123 -9q65 -12 119 -32q15 -6 17 -7t17 -7h4q1 -1 3 -1l2 -1l-20 -55l-3 1q-24 13 -59 25q-22 7 -68 17q-34 6 -70 9q-46 2 -65 2q-38 0 -84 -6q-50 -6 -90 -22q-41 -16 -71 -46q-29 -31 -29 -77
q0 -38 19 -60q20 -23 52 -35q29 -13 76 -19q56 -8 91 -11q15 -1 48 -4.5t50 -5.5q46 -4 94 -17q40 -11 69 -25q32 -15 54 -37q21 -21 35 -52q12 -31 12 -72q0 -42 -17 -74t-45 -56q-27 -22 -65 -40q-32 -14 -76 -26q-34 -9 -79 -14q-36 -4 -73 -4q-48 0 -81 4q-42 5 -76 13
q-36 7 -73 21q-36 11 -76 30l-9 4z" />
    <glyph glyph-name="uni0074" unicode="t" horiz-adv-x="939" 
d="M499 0h-60v683h-295v58h651v-58h-296v-683z" />
    <glyph glyph-name="uni0075" unicode="u" horiz-adv-x="970" 
d="M165 741h59v-433q0 -53 22 -97q21 -45 57 -78q34 -32 83 -53q48 -20 99 -20q52 0 100 20q49 21 83 53q36 33 57 78t21 97v433h59v-433q0 -67 -25 -121q-26 -57 -69 -97q-45 -42 -102 -64q-59 -24 -124 -24q-63 0 -122 24t-102 66q-44 41 -70 97q-26 57 -26 119v433z" />
    <glyph glyph-name="uni0076" unicode="v" horiz-adv-x="1006" 
d="M471 13l-327 728h65l295 -662l293 662h65l-322 -728q-4 -11 -13 -18q-7 -6 -23 -6q-13 0 -20 7q-10 10 -13 17z" />
    <glyph glyph-name="uni0077" unicode="w" horiz-adv-x="1185" 
d="M824 9l-232 459l-231 -459q-11 -20 -34 -20q-13 0 -23 7t-13 21l-147 724h59l132 -658l257 504l259 -504l131 658h59l-146 -724q-3 -14 -13 -21t-24 -7q-23 0 -34 20z" />
    <glyph glyph-name="uni0078" unicode="x" horiz-adv-x="865" 
d="M692 0l-259 326l-261 -326h-69l295 371l-295 370h69l261 -326l259 326h70l-294 -370l294 -371h-70z" />
    <glyph glyph-name="uni0079" unicode="y" horiz-adv-x="953" 
d="M202 741l275 -444l273 444h69l-313 -504v-237h-59v237l-313 504h68z" />
    <glyph glyph-name="uni007A" unicode="z" horiz-adv-x="937" 
d="M153 59l552 624h-550v58h601q16 0 26 -10q11 -11 11 -26q0 -9 -1 -12q-1 -2 -8 -11l-551 -624h556v-58h-607q-16 0 -27 11t-11 26q0 11 9 22z" />
    <glyph glyph-name="uni007B" unicode="{" horiz-adv-x="551" 
d="M437 -1v-58h-184q-16 0 -27 11t-11 26v364h-102v58h102v364q0 15 11 26q10 10 27 10h184v-58h-161v-743h161z" />
    <glyph glyph-name="uni007C" unicode="|" horiz-adv-x="286" 
d="M173 -59h-60v859h60v-859z" />
    <glyph glyph-name="uni007D" unicode="}" horiz-adv-x="551" 
d="M336 -22q0 -17 -10 -27t-27 -10h-186v58h164v743h-164v58h186q17 0 27 -9q10 -10 10 -27v-364h101v-58h-101v-364z" />
    <glyph glyph-name="uni00A1" unicode="&#xa1;" horiz-adv-x="512" 
d="M179 683q-14 0 -24 10q-11 11 -11 24q0 14 11 25q11 9 24 9q35 0 35 -34q0 -15 -10 -24q-10 -10 -25 -10zM149 0v654h60v-654h-60z" />
    <glyph glyph-name="uni00A3" unicode="&#xa3;" horiz-adv-x="889" 
d="M184 0q-12 0 -20 9q-9 9 -9 20t9 20q8 9 20 9h52v280h-92v58h92v111q0 47 20 92q20 44 52 75t78 49q44 18 93 18h125v-58h-125q-39 0 -71 -13q-32 -12 -58 -37q-25 -24 -39 -56q-15 -31 -15 -70v-111h252v-58h-252v-280h448v-58h-560z" />
    <glyph glyph-name="uni00A5" unicode="&#xa5;" horiz-adv-x="953" 
d="M767 276h-237l-24 -39v-36h261v-58h-261v-143h-59v143h-263v58h263v36l-24 39h-239v57h203l-253 408h68l275 -444l273 444h69l-253 -408h201v-57z" />
    <glyph glyph-name="uni00A6" unicode="&#xa6;" horiz-adv-x="286" 
d="M173 434h-60v366h60v-366zM173 -59h-60v367h60v-367z" />
    <glyph glyph-name="uni00A9" unicode="&#xa9;" horiz-adv-x="1024" 
d="M512 755q80 0 155 -29q72 -30 126 -81q55 -52 86 -121t31 -151t-31 -150q-30 -68 -86 -122q-54 -53 -126 -81q-73 -30 -155 -30q-81 0 -153 30q-74 30 -127 82q-56 51 -87 121q-32 72 -32 150q0 79 32 151q31 68 87 121q54 51 127 81q73 29 153 29zM512 696
q-69 0 -129 -25t-107 -69t-74 -102q-28 -57 -28 -127q0 -69 28 -126q27 -59 74 -103q46 -44 108 -69q63 -26 128 -26q67 0 130 26q60 25 107 69q46 43 73 103q27 59 27 126q0 69 -27 127q-28 60 -72 103q-45 42 -107 68q-60 25 -131 25zM517 556q41 0 79 -15q40 -18 64 -47
l2 -2l-46 -42l-2 1q-21 23 -43 33q-21 10 -54 10q-27 0 -49 -9q-25 -10 -40 -25q-18 -16 -28 -38q-10 -21 -10 -49q0 -23 11 -47q10 -22 28 -38q16 -16 40 -27q21 -10 48 -10q29 0 53 11q25 12 43 31l2 2l46 -42l-7 -7q-27 -28 -62 -42q-36 -14 -75 -14t-73 15
q-36 14 -61 39q-27 25 -41 58q-16 32 -16 71t15 72q15 32 42 58q25 25 61 39t73 14z" />
    <glyph glyph-name="guillemotleft" unicode="&#xab;" horiz-adv-x="445" 
d="M24 357l152 160h81l-155 -164l154 -164h-80l-152 159v9zM193 357l151 159h81l-156 -164l156 -164h-81l-151 160v9z" />
    <glyph glyph-name="uni00AE" unicode="&#xae;" horiz-adv-x="592" 
d="M297 400q-35 0 -69 14q-32 12 -59 38q-26 24 -41 56t-15 68q0 38 15 69q14 30 41 55q28 25 58 37q32 13 70 13t70 -13q30 -12 58 -37q24 -21 40 -55q14 -33 14 -69t-15 -68q-16 -33 -40 -56q-27 -25 -58 -38q-34 -14 -69 -14zM389 487h-59l-39 53h-20v-53h-50v155
q0 11 9 20q8 9 20 9h61q32 0 52 -17q20 -18 20 -50q0 -18 -11 -34t-27 -23l45 -60q18 17 28 40q10 21 10 48q0 28 -10 51q-11 23 -29 40q-16 15 -42 26q-24 9 -51 9q-29 0 -50 -10q-24 -11 -42 -27q-16 -15 -28 -40q-11 -24 -11 -49q0 -24 11 -48q12 -25 28 -40
q18 -17 42 -27q23 -10 50 -10q28 0 51 10q24 10 42 27zM271 586h42q19 0 19 18q0 17 -19 17h-42v-35z" />
    <glyph glyph-name="uni00AF" unicode="&#xaf;" horiz-adv-x="628" 
d="M515 567h-402v57h402v-57z" />
    <glyph glyph-name="uni00B0" unicode="&#xb0;" horiz-adv-x="592" 
d="M297 692q-25 0 -47 -9q-24 -10 -40 -24q-17 -17 -27 -37t-10 -46q0 -23 11 -45q10 -21 27 -38t40 -26q21 -10 46 -10t46 10q22 9 39 26q15 15 26 38q10 20 10 45q0 24 -9 47q-11 22 -26 37q-17 16 -38 24q-24 8 -48 8zM297 750q38 0 70 -13q30 -12 58 -37q24 -21 40 -55
q14 -33 14 -69t-15 -68q-16 -33 -40 -56q-27 -25 -58 -38q-34 -14 -69 -14t-69 14q-32 12 -59 38q-26 24 -41 56t-15 68q0 38 15 69q14 30 41 55q28 25 58 37q32 13 70 13z" />
    <glyph glyph-name="uni00B1" unicode="&#xb1;" horiz-adv-x="831" 
d="M113 397h273v244h60v-244h272v-58h-272v-213h-60v213h-273v58zM718 43h-605v58h605v-58z" />
    <glyph glyph-name="uni00B4" unicode="&#xb4;" horiz-adv-x="426" 
d="M180 566h-67l77 175h65z" />
    <glyph glyph-name="uni00B7" unicode="&#xb7;" horiz-adv-x="451" 
d="M148 332q14 0 25 -9q10 -10 10 -25q0 -16 -9 -25q-10 -9 -26 -9q-14 0 -24 10q-11 9 -11 24q0 13 11 24q10 10 24 10z" />
    <glyph glyph-name="guillemotright" unicode="&#xbb;" horiz-adv-x="425" 
d="M193 189l153 164l-153 164h79l153 -160v-9l-153 -159h-79zM24 188l155 164l-155 164h81l151 -159v-9l-151 -160h-81z" />
    <glyph glyph-name="uni02DD" unicode="&#x2dd;" horiz-adv-x="606" 
d="M180 566h-67l77 175h65zM301 566h-65l76 175h65z" />
    <glyph glyph-name="uni0307" unicode="&#x307;" 
d="M-148 634q15 0 25 -10t10 -24t-11 -23q-10 -10 -24 -10t-25 9q-10 9 -10 24q0 16 9 25q11 9 26 9z" />
    <glyph glyph-name="uni030B" unicode="&#x30b;" 
d="M-312 566h-65l77 175h64zM-190 566h-65l75 175h67z" />
    <glyph glyph-name="uni0312" unicode="&#x312;" 
d="M-149 567q-15 0 -25 9t-10 23v3.5t0.5 5t1 6.5t0.5 7l6 33q2 9 7 34q1 7 3 16l2 8v2h35v-85q16 -10 16 -28q0 -15 -11 -24q-10 -10 -25 -10z" />
    <glyph glyph-name="uni0326" unicode="&#x326;" 
d="M-149 -40q11 0 23 -9q13 -9 13 -21q0 -2 -1 -3v-3l-20 -110h-34v84q-16 7 -16 28q0 15 10 24q10 10 25 10z" />
    <glyph glyph-name="uni0335" unicode="&#x335;" 
d="M-113 242h-361v57h361v-57z" />
    <glyph glyph-name="uni0336" unicode="&#x336;" 
d="M-70 450h-774v58h774v-58z" />
    <glyph glyph-name="uni0337" unicode="&#x337;" 
d="M-664 0h-70l554 741h69z" />
    <glyph glyph-name="uni0338" unicode="&#x338;" 
d="M-664 0h-70l554 741h69z" />
    <glyph glyph-name="uni2013" unicode="&#x2013;" horiz-adv-x="622" 
d="M508 342h-395v58h395v-58z" />
    <glyph glyph-name="uni2014" unicode="&#x2014;" horiz-adv-x="999" 
d="M886 342h-773v58h773v-58z" />
    <glyph glyph-name="uni2018" unicode="&#x2018;" horiz-adv-x="296" 
d="M148 596q-11 0 -19 5q-7 4 -10 11q-3 6 -3 15q-1 6 -1 18q2 5 3 17q1 7 5 28q2 8 7 32q2 14 3 18v1h35v-83q15 -12 15 -28q0 -15 -9 -24q-10 -10 -26 -10z" />
    <glyph glyph-name="uni2019" unicode="&#x2019;" horiz-adv-x="296" 
d="M148 741q20 0 28 -11q7 -10 7 -28v-3q0 -2 -1 -3q0 -4 -1 -5l-18 -95h-34v83q-6 4 -11 13q-5 8 -5 15q0 14 11 25q10 9 24 9z" />
    <glyph glyph-name="uni201A" unicode="&#x201a;" horiz-adv-x="296" 
d="M148 58q20 0 28 -12q7 -11 7 -30q0 -3 -1 -4v-2q0 -2 -1 -3l-18 -95h-34v84q-6 4 -11 13q-5 8 -5 15q0 13 11 24q10 10 24 10z" />
    <glyph glyph-name="uni201C" unicode="&#x201c;" horiz-adv-x="398" 
d="M148 596q-11 0 -19 5q-7 4 -10 11q-3 6 -3 15q-1 6 -1 18q2 5 3 17q1 7 5 28q2 8 7 32q2 14 3 18v1h35v-83q15 -12 15 -28q0 -15 -9 -24q-10 -10 -26 -10zM216 643q0 1 1 2v1q0 4 1.5 11t2.5 10t2 10t2 11q3 11 7 33q1 14 3 19v1h35v-83q15 -12 15 -28q0 -15 -10 -24
q-10 -10 -25 -10q-24 0 -28 15q-6 13 -6 31v1z" />
    <glyph glyph-name="uni201D" unicode="&#x201d;" horiz-adv-x="388" 
d="M148 741q20 0 28 -11q7 -10 7 -28v-3q0 -2 -1 -3q0 -4 -1 -5l-18 -95h-34v83q-6 4 -11 13q-5 8 -5 15q0 14 11 25q10 9 24 9zM240 741q21 0 28 -10q8 -11 8 -29q0 -1 -1 -2v-2q-1 -1 -1 -3l-1 -2q-2 -2 -3 -14q-3 -13 -6 -30q-4 -22 -5 -32q-1 -14 -3 -19v-2h-35v83
q-16 10 -16 28q0 15 10 25q10 9 25 9z" />
    <glyph glyph-name="uni201E" unicode="&#x201e;" horiz-adv-x="398" 
d="M148 58q20 0 28 -12q7 -11 7 -30q0 -3 -1 -4v-2q0 -2 -1 -3l-18 -95h-34v84q-6 4 -11 13q-5 8 -5 15q0 13 11 24q10 10 24 10zM250 58q20 0 28 -12q7 -11 7 -30q0 -3 -1 -4v-2v-1q-1 -1 -1 -2l-18 -95h-34v84q-5 3 -11 13q-5 8 -5 15q0 14 10 24t25 10z" />
    <glyph glyph-name="uni2026" unicode="&#x2026;" horiz-adv-x="1001" 
d="M148 58q35 0 35 -34q0 -15 -10 -25q-11 -9 -25 -9t-24 10q-11 11 -11 24t11 24q10 10 24 10zM423 58q35 0 35 -34q0 -14 -9 -25q-11 -9 -26 -9q-14 0 -24 10q-11 11 -11 24t11 24q10 10 24 10zM698 58q14 0 25 -9q10 -10 10 -25t-10 -25q-11 -9 -25 -9q-34 0 -34 34
t34 34z" />
    <glyph glyph-name="uni2039" unicode="&#x2039;" horiz-adv-x="298" 
d="M24 357l152 160h81l-155 -164l154 -164h-80l-152 159v9z" />
    <glyph glyph-name="uni203A" unicode="&#x203a;" horiz-adv-x="297" 
d="M24 189l155 164l-155 164h81l151 -160v-9l-151 -159h-81z" />
    <glyph glyph-name="uni2044" unicode="&#x2044;" horiz-adv-x="210" 
d="M-137 0h-69l554 741h68z" />
    <glyph glyph-name="Euro" unicode="&#x20ac;" horiz-adv-x="781" 
d="M136 374v12q0 5 2 11h-35v57h42q17 69 54 124q35 53 87 95q50 38 115 61q63 21 135 21q22 0 35 -1q10 -1 37 -5q24 -4 36 -7q18 -4 33 -12l1 -1l-19 -53l-2 1q-50 12 -60 14q-28 6 -61 6q-57 0 -111 -17q-51 -18 -96 -50q-40 -29 -74 -76q-32 -45 -48 -100h367l-22 -57
h-355q2 -8 0 -19q-1 -8 -1 -20v-6l338 -1l-20 -56h-308q13 -53 46 -100q32 -47 76 -78q43 -33 98 -51q52 -18 110 -18q7 0 29 2t33 4q15 1 32 6t26 9l2 1l18 -56l-2 -1q-20 -6 -67 -17q-31 -6 -71 -6q-72 0 -134 23q-63 22 -116 63q-50 39 -89 96q-37 54 -52 123h-42v56h34
v12q-1 4 -1 11z" />
    <glyph glyph-name="uni2122" unicode="&#x2122;" horiz-adv-x="916" 
d="M804 410h-61v230l-108 -132l-108 131v-229h-59v299q0 14 11 25q11 9 24 9q11 0 17 -3l2.5 -2.5l2.5 -2.5t3 -2.5t3 -3.5l105 -125l104 125q4 5 12 11q6 3 16 3q16 0 27 -9q9 -9 9 -25v-299zM414 741v-58h-121v-273h-59v273h-121v58h301z" />
    <glyph glyph-name="uni2212" unicode="&#x2212;" horiz-adv-x="796" 
d="M683 339h-570v58h570v-58z" />
    <glyph glyph-name="uni2260" unicode="&#x2260;" horiz-adv-x="796" 
d="M683 319v-58h-319l-109 -147h-74l110 147h-178v58h221l88 118h-309v58h352l78 104h73l-78 -104h145v-58h-188l-87 -118h275z" />
    <glyph glyph-name="uni2264" unicode="&#x2264;" horiz-adv-x="795" 
d="M682 228v-71l-605 181q-25 7 -25 33q0 25 25 32l605 187v-69l-500 -149zM682 43h-605v58h605v-58z" />
    <glyph glyph-name="uni2265" unicode="&#x2265;" horiz-adv-x="795" 
d="M113 228l499 144l-499 149v69l604 -187q13 -5 20 -11q6 -8 6 -21q0 -25 -26 -33l-604 -181v71zM718 101v-58h-605v58h605z" />
    <glyph glyph-name="_FSHallmark" horiz-adv-x="754" 
d="M619 388h76q0 18 -8 37q-9 19 -25 33q-17 14 -41 23q-26 8 -56 8q-28 0 -52 -6q-25 -8 -42 -19q-17 -13 -28 -30q-10 -16 -10 -38q0 -43 38 -63q36 -19 92 -33q60 -14 60 -36q0 -12 -15 -19q-15 -9 -40 -9q-23 0 -36 7q-14 6 -21 15t-9 18q-3 7 -3 11l-73 1q0 -19 8 -40
q7 -19 25 -37q15 -15 44 -26q24 -10 62 -10q32 0 56 7q26 8 43 19t28 30q9 17 8 38q-2 19 -9 33q-9 12 -24 21q-18 9 -35 13q-7 1 -45 11l-27 6q-33 8 -40 18q-8 11 -8 26q0 12 16 22q16 9 36 9q23 0 39 -13t16 -27zM329 213q0 -14 11 -25t27 -11q17 0 30 10q12 11 12 26
t-12 26q-14 11 -30 11t-27 -11t-11 -26zM701 529v74h-630v-74h630zM305 277v70h-151v70h182v71h-265v-313h83v102h151zM700 61v75h-631v-75h631z" />
    <glyph glyph-name="_Fontastica" horiz-adv-x="754" 
d="M216 53q0 -11 -9 -13q-1 -1 -4 -1q-10 0 -13 10q-3 5 1 11t8 7q2 0 3 1h2q5 0 9 -4q3 -5 3 -10v-1zM369 49l8 16q1 -2 2 -4.5t1 -3.5q0 -2 1.5 -4t2.5 -4h-15zM627 49l7 16q0 -1 2 -3.5t2 -4.5q0 -1 1 -4t2 -4h-14zM203 76q-11 0 -17 -7q-7 -7 -7 -18q0 -13 14 -19
q3 -3 9 -3l6 2q15 2 19 13q4 12 -2 20q-7 12 -22 12zM279 76v-30q-3 5 -9 13t-9 11q-1 4 -5 6h-8v-44h10v27q3 -3 9 -11q1 -2 4 -6t4 -6q5 -5 7 -5t3 1h3v44h-9zM372 74q-2 -4 -5 -10.5t-4 -9.5t-4 -10.5t-5 -11.5h9q1 0 2 2l1 2q0 3 1 5h20q2 -4 2 -5q0 -3 1 -4h10
q-1 4 -3.5 11.5t-4.5 10.5t-5.5 9.5t-4.5 10.5h-10zM444 55q-3 2 -11 4q-5 5 -3 6q0 3 3 3h6q1 -1 2 -1t1.5 -0.5t1.5 -0.5q1 -1 2 -1t1.5 -0.5t1.5 -0.5l4 8q-7 4 -18 4q-6 0 -10 -2q-7 -4 -6 -11q0 -9 7 -10q3 0 4 -1t2 -1q5 -1 8 -4q2 -2 2 -5q0 1 -3 -2h-6l-14 4
q-1 -1 -1 -3q0 -1 -1 -1l-1 -2q7 -7 21 -7q7 0 8 1q10 4 8 13q0 9 -9 10zM569 63q2 3 8 5h2q5 0 7 -1q3 -3 5 -4l4 6q-8 8 -18 8q-9 0 -17 -8q-7 -7 -6 -17q2 -11 7 -16q8 -5 16 -5q12 0 18 9l-4 4q-7 -4 -14 -4q-6 0 -9 4q-4 4 -4 11q0 5 5 8zM628 76q-8 -25 -18 -44h10
l4 9h21l4 -9h10q-4 7 -10 23l-9 21h-12zM513 260v79h-295v210h294v78h-382v-510q0 -3 1 -4h87v147h295zM569 402v-210h-296v-78h383v513h-87v-146h-296v-79h296zM142 32v17h20v7h-20v12h21v8h-32v-44h11zM321 68v-36h9v36h14v8h-37v-8h14zM482 68v-36h10v36h14v8h-38v-8h14z
M535 32v44h-11v-44h11z" />
    </font>
</defs>
</svg>
