<?xml version="1.0" standalone="no"?>
<!DOCTYPE svg PUBLIC "-//W3C//DTD SVG 1.1//EN" "http://www.w3.org/Graphics/SVG/1.1/DTD/svg11.dtd" >
<svg xmlns="http://www.w3.org/2000/svg" xmlns:xlink="http://www.w3.org/1999/xlink" version="1.1">
<metadata>
Created by FontForge 20170731 at Fri Sep 21 17:59:32 2018
 By Aleksey,,,
Copyright (c) 2018 by Fontastica. All rights reserved.
</metadata>
<defs>
<font id="Signal-ExtraBold" horiz-adv-x="0" >
  <font-face 
    font-family="Signal ExtraBold"
    font-weight="800"
    font-stretch="normal"
    units-per-em="1066"
    panose-1="0 0 9 0 0 0 0 0 0 0"
    ascent="800"
    descent="-266"
    x-height="744"
    cap-height="744"
    bbox="-869 -186 1071 800"
    underline-thickness="50"
    underline-position="-200"
    unicode-range="U+0020-2265"
  />
<missing-glyph horiz-adv-x="549" 
 />
    <glyph glyph-name=".notdef" horiz-adv-x="549" 
 />
    <glyph glyph-name=".null" 
 />
    <glyph glyph-name="nonmarkingreturn" horiz-adv-x="355" 
 />
    <glyph glyph-name="uni0020" unicode=" " horiz-adv-x="484" 
 />
    <glyph glyph-name="uni0021" unicode="!" horiz-adv-x="398" 
d="M254 40q0 -17 -13 -33q-13 -17 -42 -17q-27 0 -41 17t-14 33q0 11 6 23t20 20h-21v661h100v-661h-18q14 -8 18 -19q5 -13 5 -24z" />
    <glyph glyph-name="uni0022" unicode="&#x22;" horiz-adv-x="437" 
d="M219 652q-1 -2 -1 -4t-1 -4q-1 -1 -1 -3.5t-1 -4.5q-2 -9 -6 -29q-4 -15 -6 -29v-8h-67l-1 7q-1 11 -6 27q-3 13 -7 34q-5 18 -6 34q-3 16 -3 25q0 15 16 31q15 16 39 16q19 0 32 -7q11 -7 18 -19q9 12 21 19q13 7 30 7q27 0 41 -15q14 -16 14 -32q0 -15 -3 -28l-6 -27
q-4 -22 -6 -32q-4 -22 -7 -33l-1 -7h-65l-2 7q-4 13 -7 32q-1 5 -3 15.5t-3 16.5q-1 2 -1 6q0 3 -1 5z" />
    <glyph glyph-name="uni0023" unicode="#" horiz-adv-x="780" 
d="M659 412h-104l-32 -102h106l-31 -90h-103l-41 -130h-107l41 130h-86l-42 -130h-106l41 130h-102l28 90h102l32 102h-105l32 89h101l47 147h108l-48 -147h87l46 147h107l-47 -147h104zM416 310l32 102h-85l-32 -102h85z" />
    <glyph glyph-name="uni0024" unicode="$" horiz-adv-x="958" 
d="M520 -49h-94v82q-73 5 -140 27q-70 23 -117 64q-9 9 -16 19q-9 11 -15 24q-6 10 -11 26q-5 15 -5 25q0 11 10 17q9 6 22 9q8 2 26 4q9 1 21 1h6l6 -7q4 -6 6 -8q0 -2 1.5 -4t2.5 -4q1 -3 3 -7l3 -9q9 -20 30 -37t49 -27q28 -11 58 -18q32 -8 60 -12v235q-28 4 -99 19
q-51 10 -93 30q-41 19 -70 52q-27 31 -27 80q0 46 26 81q25 35 66 57q40 22 92 34q51 12 102 15v75h102v-76q65 -6 122 -24q55 -20 105 -63q18 -16 25 -29t15 -35q2 -5 7 -22t7 -22l4 -10h-115l1 9q1 2 1.5 5.5t0.5 5.5q1 3 1 10v1q0 2 -1 3q-11 21 -32 37q-19 14 -45 25
q-23 9 -51 16q-6 1 -49 10v-214q34 -4 97 -14q54 -11 100 -30q49 -22 79 -55q32 -35 32 -91q0 -51 -32 -88q-33 -36 -80 -59q-46 -24 -101 -36q-51 -13 -96 -16v-81zM425 638q-30 -5 -62 -12q-34 -9 -61 -22q-29 -14 -47 -32q-19 -18 -19 -40q0 -17 14 -31q12 -12 34 -22
q18 -10 40 -16q18 -6 36 -10q5 -2 16 -4t17 -4q10 -3 32 -9v202zM521 338v-222q37 5 70 13q30 6 67 22q33 15 50 32q20 20 20 46q0 23 -15 39q-14 15 -36 28q-24 11 -46 18q-25 6 -43 9l-15 3q-2 0 -8 1t-8 2q-1 0 -3.5 0.5t-3.5 1.5q-4 2 -7 3q-2 1 -6 1t-7 1q-1 0 -9 2z
" />
    <glyph glyph-name="uni0026" unicode="&#x26;" horiz-adv-x="1010" 
d="M242 591q0 39 18 69q17 30 48 49q30 19 72 30q39 10 88 10q46 0 87 -9q42 -11 70 -29q30 -19 48 -48q17 -29 17 -67t-18 -70q-16 -29 -47 -56q-29 -26 -66 -45q-42 -23 -75 -38q68 -66 102 -98q51 -48 105 -96q10 16 28 49q0 3 1 4l1 2q1 3 1 5q1 3 3 7q1 4 2 5l3 6
q1 1 3 4l4 4l2 2t1 2l4 5l82 -17l-2 -8q-9 -35 -26 -67q-22 -38 -39 -64q6 -4 9 -7q2 -2 5 -4.5t4 -3.5q2 -1 6 -5t6 -5q3 -4 10 -11q12 -12 19 -17q1 -1 20 -17t38 -40l11 -12h-117l-3 3q-12 12 -34 32l-36 30q-57 -38 -121 -57q-66 -20 -143 -20q-43 0 -92 11
q-48 11 -87 33t-65 60t-26 90q0 36 14 69q13 31 38 57q24 26 57 48q31 20 70 40q-39 39 -69 87q-31 46 -31 98zM374 515q8 -12 28 -36q18 -22 25 -31l33 15q11 4 33 14q22 12 37 23q22 18 31 29q15 18 23 33q8 18 8 34q0 40 -36 61q-37 20 -88 20q-26 0 -49 -6t-40 -17
q-17 -10 -28 -27q-10 -16 -10 -36q0 -16 10 -35q9 -19 23 -41zM442 80q52 0 99 15q48 16 87 40q-79 71 -114 104l-114 105q-5 -3 -13.5 -7.5t-9.5 -5.5q-2 -1 -10.5 -6t-12.5 -8q-38 -25 -61 -49q-26 -29 -26 -73q0 -27 14 -49q13 -22 38 -36q21 -14 55 -22t68 -8z" />
    <glyph glyph-name="uni0027" unicode="'" horiz-adv-x="337" 
d="M224 697q0 -10 -2 -30q-4 -19 -7 -31q-2 -9 -6 -29q-4 -15 -6 -29v-8h-67l-1 7q-1 11 -6 27q-3 13 -7 34q-5 18 -6 34q-3 16 -3 25q0 15 16 31q15 16 39 16q27 0 42 -15q14 -16 14 -32z" />
    <glyph glyph-name="uni0028" unicode="(" horiz-adv-x="366" 
d="M283 800l-5 -11q-51 -101 -75 -205q-24 -106 -24 -213t24 -210q24 -104 75 -205l5 -11h-105l-3 5q-22 40 -39 95q-18 55 -30 112q-12 56 -18 113q-6 56 -6 101q0 106 23 215q23 107 70 209l2 5h106z" />
    <glyph glyph-name="uni0029" unicode=")" horiz-adv-x="366" 
d="M189 800l2 -5q25 -46 43 -98q19 -60 28 -108q12 -65 16 -111q5 -62 5 -107q0 -39 -5 -102q-5 -49 -17 -115q-9 -51 -28 -111q-18 -54 -42 -93l-3 -5h-106l6 11q52 99 76 204q23 104 23 211t-23 213q-24 103 -76 205l-6 11h107z" />
    <glyph glyph-name="uni002A" unicode="*" horiz-adv-x="606" 
d="M216 569l-103 47l52 81l94 -57l-8 104h104l-8 -104l97 58l48 -82l-102 -47l102 -49l-48 -82l-97 58l8 -104h-104l8 104l-94 -58l-52 82z" />
    <glyph glyph-name="uni002B" unicode="+" horiz-adv-x="859" 
d="M380 415v233h101v-233h266v-91h-266v-234h-101v234h-267v91h267z" />
    <glyph glyph-name="uni002C" unicode="," horiz-adv-x="336" 
d="M223 32q0 -6 -1 -7q0 -3 -1 -4l-20 -104h-72v89q-6 7 -11 17q-5 12 -5 17q0 17 14 34t41 17q30 0 43 -15q12 -17 12 -44z" />
    <glyph glyph-name="uni002D" unicode="-" horiz-adv-x="656" 
d="M113 327v91h429v-91h-429z" />
    <glyph glyph-name="uni002E" unicode="." horiz-adv-x="336" 
d="M223 40q0 -17 -13 -33q-13 -17 -42 -17q-27 0 -41 17t-14 33q0 17 14 34t41 17q31 0 43 -16t12 -35z" />
    <glyph glyph-name="uni002F" unicode="/" horiz-adv-x="574" 
d="M28 -186l408 930h109l-408 -930h-109z" />
    <glyph glyph-name="uni0030" unicode="0" horiz-adv-x="811" 
d="M405 668q-33 0 -59 -12q-27 -13 -44 -31q-18 -18 -28 -44q-10 -23 -10 -48v-318q0 -25 10 -48q11 -25 29 -43q18 -20 44 -32q25 -12 58 -12t59 12q27 13 44 31q18 19 28 44q9 24 9 48v318q0 25 -9 50q-8 22 -26 43q-17 18 -44 31q-27 11 -61 11zM405 758q59 0 107 -20
q43 -19 75 -52q30 -33 45 -73t15 -80v-318q0 -39 -15 -79q-17 -42 -47 -72q-32 -33 -76 -54q-45 -21 -104 -21q-58 0 -102 22q-45 21 -75 54q-30 32 -47 73q-16 39 -16 77v318q0 40 16 79q15 40 45 73q31 32 75 53q46 20 104 20z" />
    <glyph glyph-name="uni0031" unicode="1" horiz-adv-x="624" 
d="M359 0v625l-187 -102l-48 80l252 135q1 0 6 2t8 3q8 3 16 3q33 0 43 -16q11 -17 11 -34l-1 -696h-100z" />
    <glyph glyph-name="uni0032" unicode="2" horiz-adv-x="844" 
d="M439 644q-63 0 -99 -30q-37 -31 -44 -76l-4 -17h-111l2 9q3 26 9 48q11 41 36 71q26 29 60 48q32 18 74 29q39 9 78 9q62 0 111 -17q46 -16 79 -46q31 -28 48 -68q16 -38 16 -83q0 -30 -8 -59q-9 -27 -24 -52q-13 -23 -36 -47q-24 -26 -47 -46l-243 -222h367v-92h-518v83
l322 290q35 32 56 65q20 34 20 75q0 28 -9 50q-9 23 -27 41q-18 17 -45 27q-26 10 -63 10z" />
    <glyph glyph-name="uni0033" unicode="3" horiz-adv-x="794" 
d="M134 91h271q29 0 59 11q25 9 50 31q21 19 34 46q13 26 13 58q0 31 -12 60q-14 29 -34 47q-25 21 -50 32q-30 11 -60 11h-83q-27 0 -41 17t-14 32q0 20 15 35l191 183h-339v90h442q31 0 44 -16q12 -16 12 -34q0 -10 -3 -17t-11 -15l-193 -187q48 -3 90 -22t75 -51
q31 -31 51 -74q19 -41 19 -91q0 -51 -21 -95q-23 -44 -57 -75q-38 -33 -82 -49q-46 -18 -95 -18h-271v91z" />
    <glyph glyph-name="uni0034" unicode="4" horiz-adv-x="810" 
d="M597 744v-414h105v-90h-105v-240h-100v240h-319q-27 0 -41 17q-13 16 -13 32q0 6 3 15q1 7 7 13l375 427h88zM497 594l-229 -264h229v264z" />
    <glyph glyph-name="uni0035" unicode="5" horiz-adv-x="784" 
d="M140 744h484v-90h-385v-177h166q49 0 96 -18q46 -18 81 -50q34 -31 57 -76q21 -43 21 -96q0 -51 -21 -95q-23 -44 -57 -75q-36 -33 -81 -49q-47 -18 -96 -18h-271v91h271q29 0 59 11q25 9 50 31q21 19 34 46q13 26 13 58q0 31 -12 60q-14 29 -34 47q-25 21 -50 32
q-30 11 -60 11h-210q-27 0 -41 17t-14 32v308z" />
    <glyph glyph-name="uni0036" unicode="6" horiz-adv-x="832" 
d="M144 244q0 30 11 65q12 35 24 61l185 374h106l-126 -255q21 6 34 7q11 1 38 1q65 0 117 -23t86 -60t52 -81q17 -46 17 -89q0 -44 -18 -87q-18 -45 -52 -82t-86 -60q-51 -24 -116 -24q-54 0 -101 20q-51 20 -87 53q-39 34 -61 80q-23 48 -23 100zM243 244q0 -28 12 -57
t35 -52q23 -25 54 -38q32 -15 72 -15t71 15q32 14 55 38q21 21 34 52q12 29 12 57t-11 59q-13 30 -34 53q-23 23 -54 38q-33 14 -73 14q-39 0 -72 -14q-31 -15 -54 -38q-23 -25 -35 -53q-12 -30 -12 -59z" />
    <glyph glyph-name="uni0037" unicode="7" horiz-adv-x="779" 
d="M214 0l320 654h-410v90h478q33 0 43 -16q11 -17 11 -34q0 -14 -6 -24l-331 -670h-105z" />
    <glyph glyph-name="uni0038" unicode="8" horiz-adv-x="812" 
d="M144 225q0 55 28 108q28 54 87 88q-34 28 -51 67q-16 36 -16 75q0 33 14 69q13 33 42 62q27 28 67 46q41 18 91 18q51 0 93 -17q39 -17 68 -45t42 -63q14 -36 14 -70q0 -40 -16 -76q-17 -37 -51 -66q60 -37 86 -88q26 -54 26 -108q0 -52 -22 -95q-22 -44 -60 -75
q-40 -33 -84 -49q-48 -17 -96 -17t-95 18q-44 16 -84 49q-37 32 -60 75q-23 44 -23 94zM406 668q-25 0 -46 -9t-36 -24q-16 -16 -23 -33q-9 -20 -9 -38t9 -36q7 -19 24 -34q15 -15 36 -24q20 -10 45 -10q26 0 47 9t36 24t24 34q8 19 8 37q0 21 -7 39q-6 17 -22 34
q-16 14 -36 23q-24 8 -50 8zM243 225q0 -27 13 -52q13 -28 34 -46q20 -20 51 -34q29 -13 65 -13q38 0 67 13q28 11 52 32q21 19 33 47q11 27 11 53t-11 54q-12 26 -33 47q-21 20 -51 33q-30 12 -68 12t-67 -13q-30 -14 -51 -33q-22 -21 -33 -47q-12 -26 -12 -53z" />
    <glyph glyph-name="uni0039" unicode="9" horiz-adv-x="832" 
d="M363 0l126 256q-35 -9 -72 -9q-65 0 -116 24q-52 23 -86 60q-35 37 -53 81q-18 45 -18 88q0 54 23 102q21 43 61 80q36 33 87 53q49 18 102 18q65 0 117 -23q51 -25 85 -60q34 -37 52 -82q17 -46 17 -88q0 -35 -10 -64q-7 -21 -25 -61l-183 -375h-107zM243 500
q0 -34 15 -63q15 -30 40 -52q22 -21 55 -35q30 -13 64 -13q41 0 72 15q31 13 54 38q21 21 34 52q11 30 11 58q0 30 -12 58q-13 31 -34 52q-24 24 -53 38q-33 14 -72 14t-72 -14q-31 -14 -55 -38q-23 -23 -35 -52q-12 -28 -12 -58z" />
    <glyph glyph-name="uni003A" unicode=":" horiz-adv-x="491" 
d="M223 40q0 -17 -13 -33q-13 -17 -42 -17q-27 0 -41 17t-14 33q0 17 14 34t41 17q31 0 43 -16t12 -35zM223 302q0 -17 -13 -33q-14 -17 -42 -17q-27 0 -41 17t-14 33t14 33t41 17q29 0 42 -16t13 -34z" />
    <glyph glyph-name="uni003B" unicode=";" horiz-adv-x="491" 
d="M223 32q0 -6 -1 -7q0 -3 -1 -4l-20 -104h-72v89q-6 7 -11 17q-5 12 -5 17q0 17 14 34t41 17q30 0 43 -15q12 -17 12 -44zM223 301q0 -17 -13 -33q-14 -17 -42 -17q-27 0 -41 17t-14 33t14 33t41 17q29 0 42 -16t13 -34z" />
    <glyph glyph-name="uni003C" unicode="&#x3c;" horiz-adv-x="864" 
d="M751 143l-620 182q-21 6 -29 20q-9 13 -9 28q0 13 9 27q8 13 29 19l620 188v-104l-445 -129l445 -126v-105z" />
    <glyph glyph-name="uni003D" unicode="=" horiz-adv-x="825" 
d="M113 417v91h599v-91h-599zM113 249v91h599v-91h-599z" />
    <glyph glyph-name="uni003E" unicode="&#x3e;" horiz-adv-x="864" 
d="M558 374l-445 129v104l619 -188q22 -6 31 -18q8 -13 8 -28q0 -14 -8 -28q-10 -14 -31 -20l-619 -182v105z" />
    <glyph glyph-name="uni003F" unicode="?" horiz-adv-x="793" 
d="M380 655q-24 0 -49 -6q-23 -5 -46 -17q-19 -9 -38 -26q-16 -14 -22 -33l-15 -39l-3 -6h-97l3 10q5 16 8 28q3 16 9 28q16 39 42 64q27 27 60 43t71 24q35 7 77 7q58 0 109 -14q46 -14 82 -41q33 -26 53 -64q18 -37 18 -83q0 -34 -10 -60q-9 -23 -28 -49q-16 -20 -41 -40
q-16 -13 -50 -35q-39 -24 -67 -58q-25 -32 -25 -83v-8h-108l2 9q3 21 8 47q5 21 12 38t22 35t35 33q18 14 35 26q19 12 34 23q33 23 56 51t23 71q0 57 -43 91t-117 34zM366 11q-34 0 -56 19q-23 18 -23 43t21 45q19 19 58 19q40 0 60 -18q19 -18 19 -46t-20 -45
q-22 -17 -59 -17z" />
    <glyph glyph-name="uni0040" unicode="@" horiz-adv-x="1039" 
d="M622 530v26h92v-230q0 -13 4 -22q3 -13 10 -21q6 -10 16 -16q9 -6 22 -6q20 0 33 13q14 14 21 32q8 18 12 39q3 21 3 36q0 57 -19 108q-20 53 -57 93q-38 39 -97 65q-58 24 -138 24q-81 0 -138 -25q-60 -26 -99 -66q-39 -41 -59 -94q-20 -54 -20 -109q0 -53 18 -105
q18 -53 55 -93q36 -41 93 -66q57 -26 133 -26q43 0 80 8q34 7 69 35l18 14v-86l-17 -18h-3q-1 -1 -4 -1q-36 -11 -74 -21q-36 -9 -76 -9q-82 0 -151 27q-71 27 -121 76t-79 117q-29 69 -29 148q0 69 24 136q24 66 74 119t125 84q78 32 179 32q87 0 159 -25q73 -25 127 -72
q52 -45 85 -115q31 -66 31 -155q0 -27 -7 -59q-7 -34 -25 -65t-49 -52q-31 -22 -79 -22q-42 0 -66 18q-24 17 -41 42q-27 -29 -63 -48q-37 -20 -87 -20q-53 0 -90 19q-39 19 -64 49q-24 27 -37 65q-13 33 -13 68q0 34 12 68q12 35 38 64t64 48q37 19 90 19q37 0 66 -12
q26 -13 49 -33zM399 377q0 -19 8 -41t21 -38q14 -18 35 -29q22 -11 49 -11t51 11q23 11 36 27t21 39q7 20 7 42q0 21 -6 42q-8 22 -21 38q-13 15 -36 26q-21 10 -52 10q-26 0 -48 -11t-35 -27q-13 -15 -22 -37q-8 -22 -8 -41z" />
    <glyph glyph-name="uni0041" unicode="A" horiz-adv-x="967" 
d="M212 0h-109l330 724q4 12 19 23q14 11 34 11q26 0 37 -9q11 -11 18 -25l323 -724h-109l-129 285h-283zM382 369h207l-103 230z" />
    <glyph glyph-name="uni0042" unicode="B" horiz-adv-x="940" 
d="M223 0q-28 0 -43 18q-15 17 -15 34v640q0 17 15 35q14 17 43 17h317q56 0 97 -19q44 -20 71 -49q28 -29 43 -67q14 -39 14 -73q0 -41 -16 -80q-17 -42 -54 -73q53 -31 78 -76q23 -44 23 -95q0 -34 -14 -73q-16 -39 -43 -68q-28 -31 -70 -51q-43 -20 -97 -20h-349z
M264 654v-236h276q29 0 53 11q23 11 39 27t25 37q8 22 8 43t-8 43q-10 23 -25 38q-16 17 -39 27q-21 10 -53 10h-276zM264 91h308q28 0 52 11q21 10 39 28q16 16 25 39q8 24 8 43q0 21 -8 43q-9 19 -24 36q-15 15 -39 26q-21 10 -53 10h-308v-236z" />
    <glyph glyph-name="uni0043" unicode="C" horiz-adv-x="1022" 
d="M875 600l3 -5l-74 -59l-7 9q-43 55 -102 90q-58 34 -144 34q-61 0 -117 -21q-57 -23 -98 -61q-41 -37 -68 -92q-26 -55 -26 -117q0 -51 21 -104q22 -55 61 -97q41 -44 97 -72t130 -28q90 0 149 31q60 32 103 89l19 27l77 -59l-16 -18q-68 -83 -146 -120q-81 -38 -186 -38
q-79 0 -153 30q-73 28 -130 82q-57 53 -90 123q-34 69 -34 154q0 66 27 133q25 66 78 122q54 56 128 89q74 34 174 34q51 0 101 -11q48 -13 88 -33q42 -22 75 -49q35 -29 60 -63z" />
    <glyph glyph-name="uni0044" unicode="D" horiz-adv-x="1000" 
d="M452 744q80 0 153 -27q74 -27 129 -76q56 -50 89 -117q33 -69 33 -151q0 -83 -33 -150q-35 -70 -89 -118q-56 -50 -129 -77q-72 -28 -153 -28h-229q-29 0 -43 18q-15 17 -15 34v640q0 17 15 35q14 17 43 17h229zM264 91h188q60 0 115 21q54 20 97 59q42 37 67 89
q24 51 24 113q0 61 -24 114q-26 52 -66 89q-41 37 -97 58q-57 20 -116 20h-188v-563z" />
    <glyph glyph-name="uni0045" unicode="E" horiz-adv-x="947" 
d="M752 327h-488v-236h519v-91h-560q-28 0 -43 18q-15 17 -15 34v640q0 17 15 35q14 17 43 17h560v-90h-519v-236h488v-91z" />
    <glyph glyph-name="uni0046" unicode="F" horiz-adv-x="896" 
d="M733 327h-469v-327h-99v692q0 17 15 35q14 17 43 17h539v-90h-498v-236h469v-91z" />
    <glyph glyph-name="uni0047" unicode="G" horiz-adv-x="1038" 
d="M144 378q0 66 27 133q25 66 78 122q54 56 128 89q74 34 174 34q51 0 101 -11q48 -13 88 -33q42 -22 75 -49q35 -29 60 -63l3 -5l-74 -59l-7 9q-43 55 -102 90q-58 34 -144 34q-61 0 -117 -21q-57 -23 -98 -61q-41 -37 -68 -92q-26 -55 -26 -117q0 -51 21 -104
q22 -55 61 -97q41 -44 97 -72t130 -28q82 0 141 28q59 27 101 80v88h-290v89l391 -2v-183q0 -6 -2 -14q-3 -7 -7 -14q-23 -37 -57 -65q-35 -29 -80 -51q-47 -22 -95 -32q-51 -12 -102 -12q-79 0 -153 30q-76 31 -130 82q-57 53 -90 124q-34 69 -34 153z" />
    <glyph glyph-name="uni0048" unicode="H" horiz-adv-x="1006" 
d="M741 327h-477v-327h-99v744h99v-326h477v326h100v-744h-100v327z" />
    <glyph glyph-name="uni0049" unicode="I" horiz-adv-x="380" 
d="M138 744h99v-744h-99v744z" />
    <glyph glyph-name="uni004A" unicode="J" horiz-adv-x="863" 
d="M216 210q5 -16 13 -26q8 -12 20 -24q27 -29 67 -48q38 -19 85 -19q37 0 74 14q35 13 64 39q28 25 44 58t16 74v466h99v-466q0 -49 -19 -97q-19 -49 -57 -88q-36 -39 -93 -65t-128 -26q-101 0 -172 50t-113 139l-3 6l96 35z" />
    <glyph glyph-name="uni004B" unicode="K" horiz-adv-x="917" 
d="M654 744h158l-480 -368l482 -376h-155l-395 305v-305h-99v744h99v-298z" />
    <glyph glyph-name="uni004C" unicode="L" horiz-adv-x="906" 
d="M165 52v692h99v-653h498v-91h-539q-28 0 -43 18q-15 17 -15 34z" />
    <glyph glyph-name="uni004D" unicode="M" horiz-adv-x="1073" 
d="M808 0v560l-272 -420l-272 420v-560h-99v707q0 17 15 34q14 17 43 17q17 0 30 -7q11 -7 19 -18l264 -412l265 412q8 11 20 18q11 7 30 7q32 0 45 -16q12 -17 12 -35v-707h-100z" />
    <glyph glyph-name="uni004E" unicode="N" horiz-adv-x="1000" 
d="M725 14l-461 576v-590h-99v704q0 18 14 37q14 17 46 17q17 0 31 -6q13 -8 20 -18l459 -579v589h100v-700q0 -17 -14 -36q-13 -19 -46 -19q-20 0 -30 7q-15 12 -20 18z" />
    <glyph glyph-name="uni004F" unicode="O" horiz-adv-x="1078" 
d="M232 378q0 -63 25 -117q26 -57 68 -96q43 -41 98 -65t117 -24q64 0 119 24q53 21 97 64q41 41 65 96q23 57 23 118q0 62 -23 117q-24 53 -65 93q-41 38 -97 61q-54 22 -119 22q-73 0 -131 -26q-58 -27 -97 -69q-40 -43 -59 -94q-21 -52 -21 -104zM945 378q0 -84 -33 -155
t-89 -122q-55 -53 -129 -81q-74 -30 -154 -30q-98 0 -173 37q-76 36 -127 93q-52 56 -79 126q-27 68 -27 132q0 85 34 154q33 68 89 120q55 49 130 78q73 27 153 27q100 0 175 -34q76 -34 127 -90q52 -57 77 -122q26 -69 26 -133z" />
    <glyph glyph-name="uni0050" unicode="P" horiz-adv-x="902" 
d="M509 744q66 0 117 -24q50 -24 84 -61q33 -36 52 -83q17 -46 17 -88q0 -54 -23 -98q-22 -44 -60 -76q-39 -33 -86 -49q-50 -18 -101 -18h-245v-247h-99v692q0 17 15 35q14 17 43 17h286zM264 337h245q41 0 71 13q31 13 53 34q21 21 33 49q11 28 11 55q0 28 -11 59
q-10 28 -32 53q-23 25 -53 39q-31 15 -72 15h-245v-317z" />
    <glyph glyph-name="uni0051" unicode="Q" horiz-adv-x="1077" 
d="M964 0h-123l-60 66q-53 -36 -110 -55q-60 -21 -131 -21q-98 0 -173 37q-76 36 -127 93q-52 56 -79 126q-27 68 -27 132q0 85 34 154q33 68 89 120q55 49 130 78q73 27 153 27q100 0 175 -34q76 -34 127 -90q52 -57 77 -122q26 -69 26 -133q0 -71 -22 -131
q-23 -63 -75 -120zM590 281l75 52l121 -134q31 42 45 86q13 42 13 93q0 62 -23 117q-24 53 -65 93q-41 38 -97 61q-54 22 -119 22q-73 0 -131 -26q-58 -27 -97 -69q-40 -43 -59 -94q-21 -52 -21 -104q0 -63 25 -117q26 -57 68 -96q43 -41 98 -65t117 -24q54 0 97 15
q44 15 82 44z" />
    <glyph glyph-name="uni0052" unicode="R" horiz-adv-x="948" 
d="M690 0l-203 275h-223v-275h-99v692q0 17 15 35q14 17 43 17h303q50 0 97 -18q46 -18 81 -50q35 -33 56 -77q20 -45 20 -96q0 -33 -11 -69q-13 -37 -34 -64q-22 -29 -57 -52q-36 -24 -82 -34l213 -284h-119zM264 654v-289h262q36 0 65 12q27 10 48 31q19 18 29 44
q10 23 10 51q0 27 -10 53q-11 28 -29 49q-20 22 -48 35q-30 14 -65 14h-262z" />
    <glyph glyph-name="uni0053" unicode="S" horiz-adv-x="991" 
d="M211 142l15 -6q4 -3 14 -7q57 -26 118 -36q63 -11 122 -11q39 0 89 8q51 8 87 23q40 15 66 40q26 26 26 61q0 14 -3 28q-5 16 -13 25q-14 18 -37 32q-21 11 -52 21q-39 10 -64 13q-13 2 -36.5 4.5t-34.5 3.5q-13 2 -37.5 4.5t-36.5 3.5q-38 3 -72 9q-40 6 -76 18
q-36 11 -65 33q-26 18 -44 52q-17 32 -17 76q0 42 17 76q17 33 43 56q28 25 63 41q31 14 75 26q41 10 77 14q35 4 73 4q67 0 139 -11q67 -12 133 -41h2q1 -1 2 -1h-2l18 -5l-7 3h1q2 0 2 -1l8 -2l9 -3l-35 -90l-12 6q-60 32 -122 44q-68 11 -136 11q-43 0 -86 -6
q-45 -8 -79 -21q-37 -15 -59 -39q-23 -26 -23 -61q0 -26 13 -45t44 -31q16 -7 43 -12q31 -6 56 -8q29 -5 57 -6q15 -2 49 -4q58 -5 109 -13q57 -10 105 -33q49 -25 80 -64q31 -40 31 -107q0 -42 -17 -76q-17 -32 -47 -59q-31 -26 -67 -42t-79 -27q-40 -10 -82 -15
q-36 -4 -76 -4q-45 0 -92 5q-43 5 -80 15q-42 12 -76 24q-48 17 -80 31l-8 3l45 83l10 -5q8 -3 12 -5z" />
    <glyph glyph-name="uni0054" unicode="T" horiz-adv-x="966" 
d="M433 0v654h-289v90h678v-90h-289v-654h-100z" />
    <glyph glyph-name="uni0055" unicode="U" horiz-adv-x="998" 
d="M264 744v-432q0 -45 20 -87q19 -40 53 -69q31 -29 75 -46q43 -17 87 -17q43 0 88 17q43 17 75 46q33 30 52 69t19 87v432h100v-432q0 -69 -27 -126q-30 -59 -74 -98q-46 -40 -107 -63q-63 -23 -126 -23t-123 24q-59 22 -107 65q-46 40 -75 98q-29 56 -29 123v432h99z" />
    <glyph glyph-name="uni0056" unicode="V" horiz-adv-x="1050" 
d="M253 744l274 -602l272 602h107l-324 -720q-7 -12 -18 -25q-11 -10 -37 -10q-22 0 -34 12q-13 12 -18 23l-331 720h109z" />
    <glyph glyph-name="uni0057" unicode="W" horiz-adv-x="1215" 
d="M401 19q-8 -14 -20 -22q-14 -8 -33 -8q-26 0 -39 13q-12 12 -17 28l-148 714h101l120 -586l243 465l244 -465l119 586h100l-147 -714q-3 -14 -17 -28q-14 -13 -40 -13q-19 0 -33 8q-13 9 -19 22l-207 402z" />
    <glyph glyph-name="uni0058" unicode="X" horiz-adv-x="930" 
d="M465 299l-243 -299h-119l303 373l-303 371h119l243 -298l242 298h120l-302 -371l302 -373h-120z" />
    <glyph glyph-name="uni0059" unicode="Y" horiz-adv-x="1008" 
d="M504 338l255 406h115l-217 -341q-7 -11 -29 -43q-4 -6 -14 -18.5t-14 -19.5q-14 -19 -24 -37q-14 -22 -23 -45v-7v-25v-77v-123v-8h-99v8v123v77v25v7q-7 18 -22 45q-7 13 -25 37q-4 7 -13 19t-14 19q-22 32 -29 43l-217 341h114z" />
    <glyph glyph-name="uni005A" unicode="Z" horiz-adv-x="964" 
d="M155 654v90h608q30 0 44 -17q13 -17 13 -35q0 -7 -2 -17q-2 -7 -10 -16l-515 -568h524v-91h-615q-30 0 -43 18q-15 18 -15 35q0 18 13 31l515 570h-517z" />
    <glyph glyph-name="uni005B" unicode="[" horiz-adv-x="487" 
d="M373 -56h-202q-29 0 -43 17q-15 18 -15 35v752q0 17 15 35q14 17 43 17h202v-91h-160v-675h160v-90z" />
    <glyph glyph-name="uni005C" unicode="\" horiz-adv-x="735" 
d="M708 -186h-110l-407 930h108z" />
    <glyph glyph-name="uni005D" unicode="]" horiz-adv-x="487" 
d="M316 -56h-203v90h160v675h-160v91h203q30 0 44 -17q13 -16 13 -35v-752q0 -18 -13 -35q-14 -17 -44 -17z" />
    <glyph glyph-name="uni005E" unicode="^" horiz-adv-x="713" 
d="M338 542l-57 98l-57 -98h-111l106 177q11 17 24 21q12 4 32 4q19 0 39 -3t30 -22l103 -177h-109z" />
    <glyph glyph-name="uni005F" unicode="_" horiz-adv-x="781" 
d="M62 -140v89h657v-89h-657z" />
    <glyph glyph-name="uni0060" unicode="`" horiz-adv-x="483" 
d="M203 542l-90 202h107l91 -202h-108z" />
    <glyph glyph-name="uni0061" unicode="a" horiz-adv-x="967" 
d="M212 0h-109l330 724q4 12 19 23q14 11 34 11q26 0 37 -9q11 -11 18 -25l323 -724h-109l-129 285h-283zM382 369h207l-103 230z" />
    <glyph glyph-name="uni0062" unicode="b" horiz-adv-x="940" 
d="M223 0q-28 0 -43 18q-15 17 -15 34v640q0 17 15 35q14 17 43 17h317q56 0 97 -19q44 -20 71 -49q28 -29 43 -67q14 -39 14 -73q0 -41 -16 -80q-17 -42 -54 -73q53 -31 78 -76q23 -44 23 -95q0 -34 -14 -73q-16 -39 -43 -68q-28 -31 -70 -51q-43 -20 -97 -20h-349z
M264 654v-236h276q29 0 53 11q23 11 39 27t25 37q8 22 8 43t-8 43q-10 23 -25 38q-16 17 -39 27q-21 10 -53 10h-276zM264 91h308q28 0 52 11q21 10 39 28q16 16 25 39q8 24 8 43q0 21 -8 43q-9 19 -24 36q-15 15 -39 26q-21 10 -53 10h-308v-236z" />
    <glyph glyph-name="uni0063" unicode="c" horiz-adv-x="1022" 
d="M875 600l3 -5l-74 -59l-7 9q-43 55 -102 90q-58 34 -144 34q-61 0 -117 -21q-57 -23 -98 -61q-41 -37 -68 -92q-26 -55 -26 -117q0 -51 21 -104q22 -55 61 -97q41 -44 97 -72t130 -28q90 0 149 31q60 32 103 89l19 27l77 -59l-16 -18q-68 -83 -146 -120q-81 -38 -186 -38
q-79 0 -153 30q-73 28 -130 82q-57 53 -90 123q-34 69 -34 154q0 66 27 133q25 66 78 122q54 56 128 89q74 34 174 34q51 0 101 -11q48 -13 88 -33q42 -22 75 -49q35 -29 60 -63z" />
    <glyph glyph-name="uni0064" unicode="d" horiz-adv-x="1000" 
d="M452 744q80 0 153 -27q74 -27 129 -76q56 -50 89 -117q33 -69 33 -151q0 -83 -33 -150q-35 -70 -89 -118q-56 -50 -129 -77q-72 -28 -153 -28h-229q-29 0 -43 18q-15 17 -15 34v640q0 17 15 35q14 17 43 17h229zM264 91h188q60 0 115 21q54 20 97 59q42 37 67 89
q24 51 24 113q0 61 -24 114q-26 52 -66 89q-41 37 -97 58q-57 20 -116 20h-188v-563z" />
    <glyph glyph-name="uni0065" unicode="e" horiz-adv-x="947" 
d="M752 327h-488v-236h519v-91h-560q-28 0 -43 18q-15 17 -15 34v640q0 17 15 35q14 17 43 17h560v-90h-519v-236h488v-91z" />
    <glyph glyph-name="uni0066" unicode="f" horiz-adv-x="896" 
d="M733 327h-469v-327h-99v692q0 17 15 35q14 17 43 17h539v-90h-498v-236h469v-91z" />
    <glyph glyph-name="uni0067" unicode="g" horiz-adv-x="1038" 
d="M144 378q0 66 27 133q25 66 78 122q54 56 128 89q74 34 174 34q51 0 101 -11q48 -13 88 -33q42 -22 75 -49q35 -29 60 -63l3 -5l-74 -59l-7 9q-43 55 -102 90q-58 34 -144 34q-61 0 -117 -21q-57 -23 -98 -61q-41 -37 -68 -92q-26 -55 -26 -117q0 -51 21 -104
q22 -55 61 -97q41 -44 97 -72t130 -28q82 0 141 28q59 27 101 80v88h-290v89l391 -2v-183q0 -6 -2 -14q-3 -7 -7 -14q-23 -37 -57 -65q-35 -29 -80 -51q-47 -22 -95 -32q-51 -12 -102 -12q-79 0 -153 30q-76 31 -130 82q-57 53 -90 124q-34 69 -34 153z" />
    <glyph glyph-name="uni0068" unicode="h" horiz-adv-x="1006" 
d="M741 327h-477v-327h-99v744h99v-326h477v326h100v-744h-100v327z" />
    <glyph glyph-name="uni0069" unicode="i" horiz-adv-x="380" 
d="M138 744h99v-744h-99v744z" />
    <glyph glyph-name="uni006A" unicode="j" horiz-adv-x="863" 
d="M216 210q5 -16 13 -26q8 -12 20 -24q27 -29 67 -48q38 -19 85 -19q37 0 74 14q35 13 64 39q28 25 44 58t16 74v466h99v-466q0 -49 -19 -97q-19 -49 -57 -88q-36 -39 -93 -65t-128 -26q-101 0 -172 50t-113 139l-3 6l96 35z" />
    <glyph glyph-name="uni006B" unicode="k" horiz-adv-x="916" 
d="M348 376l466 -376h-155l-395 317v-317h-99v744h99v-310l390 310h156z" />
    <glyph glyph-name="uni006C" unicode="l" horiz-adv-x="906" 
d="M165 52v692h99v-653h498v-91h-539q-28 0 -43 18q-15 17 -15 34z" />
    <glyph glyph-name="uni006D" unicode="m" horiz-adv-x="1073" 
d="M808 0v560l-272 -420l-272 420v-560h-99v707q0 17 15 34q14 17 43 17q17 0 30 -7q11 -7 19 -18l264 -412l265 412q8 11 20 18q11 7 30 7q32 0 45 -16q12 -17 12 -35v-707h-100z" />
    <glyph glyph-name="uni006E" unicode="n" horiz-adv-x="1000" 
d="M725 14l-461 576v-590h-99v704q0 18 14 37q14 17 46 17q17 0 31 -6q13 -8 20 -18l459 -579v589h100v-700q0 -17 -14 -36q-13 -19 -46 -19q-20 0 -30 7q-15 12 -20 18z" />
    <glyph glyph-name="uni006F" unicode="o" horiz-adv-x="1078" 
d="M232 378q0 -63 25 -117q26 -57 68 -96q43 -41 98 -65t117 -24q64 0 119 24q53 21 97 64q41 41 65 96q23 57 23 118q0 62 -23 117q-24 53 -65 93q-41 38 -97 61q-54 22 -119 22q-73 0 -131 -26q-58 -27 -97 -69q-40 -43 -59 -94q-21 -52 -21 -104zM945 378q0 -84 -33 -155
t-89 -122q-55 -53 -129 -81q-74 -30 -154 -30q-98 0 -173 37q-76 36 -127 93q-52 56 -79 126q-27 68 -27 132q0 85 34 154q33 68 89 120q55 49 130 78q73 27 153 27q100 0 175 -34q76 -34 127 -90q52 -57 77 -122q26 -69 26 -133z" />
    <glyph glyph-name="uni0070" unicode="p" horiz-adv-x="902" 
d="M509 744q66 0 117 -24q50 -24 84 -61q33 -36 52 -83q17 -46 17 -88q0 -54 -23 -98q-22 -44 -60 -76q-39 -33 -86 -49q-50 -18 -101 -18h-245v-247h-99v692q0 17 15 35q14 17 43 17h286zM264 337h245q41 0 71 13q31 13 53 34q21 21 33 49q11 28 11 55q0 28 -11 59
q-10 28 -32 53q-23 25 -53 39q-31 15 -72 15h-245v-317z" />
    <glyph glyph-name="uni0071" unicode="q" horiz-adv-x="1077" 
d="M964 0h-123l-60 66q-53 -36 -110 -55q-60 -21 -131 -21q-98 0 -173 37q-76 36 -127 93q-52 56 -79 126q-27 68 -27 132q0 85 34 154q33 68 89 120q55 49 130 78q73 27 153 27q100 0 175 -34q76 -34 127 -90q52 -57 77 -122q26 -69 26 -133q0 -71 -22 -131
q-23 -63 -75 -120zM570 302h123l93 -103q31 42 45 86q13 42 13 93q0 62 -23 117q-24 53 -65 93q-41 38 -97 61q-54 22 -119 22q-73 0 -131 -26q-58 -27 -97 -69q-40 -43 -59 -94q-21 -52 -21 -104q0 -63 25 -117q26 -57 68 -96q43 -41 98 -65t117 -24q54 0 97 15
q44 15 82 44z" />
    <glyph glyph-name="uni0072" unicode="r" horiz-adv-x="948" 
d="M690 0l-203 275h-223v-275h-99v692q0 17 15 35q14 17 43 17h303q50 0 97 -18q46 -18 81 -50q35 -33 56 -77q20 -45 20 -96q0 -33 -11 -69q-13 -37 -34 -64q-22 -29 -57 -52q-36 -24 -82 -34l213 -284h-119zM264 654v-289h262q36 0 65 12q27 10 48 31q19 18 29 44
q10 23 10 51q0 27 -10 53q-11 28 -29 49q-20 22 -48 35q-30 14 -65 14h-262z" />
    <glyph glyph-name="uni0073" unicode="s" horiz-adv-x="991" 
d="M211 142l15 -6q4 -3 14 -7q57 -26 118 -36q63 -11 122 -11q39 0 89 8q51 8 87 23q40 15 66 40q26 26 26 61q0 14 -3 28q-5 16 -13 25q-14 18 -37 32q-21 11 -52 21q-39 10 -64 13q-13 2 -36.5 4.5t-34.5 3.5q-13 2 -37.5 4.5t-36.5 3.5q-38 3 -72 9q-40 6 -76 18
q-36 11 -65 33q-26 18 -44 52q-17 32 -17 76q0 42 17 76q17 33 43 56q28 25 63 41q31 14 75 26q41 10 77 14q35 4 73 4q67 0 139 -11q67 -12 133 -41h2q1 -1 2 -1h-2l18 -5l-7 3h1q2 0 2 -1l8 -2l9 -3l-35 -90l-12 6q-60 32 -122 44q-68 11 -136 11q-43 0 -86 -6
q-45 -8 -79 -21q-37 -15 -59 -39q-23 -26 -23 -61q0 -26 13 -45t44 -31q16 -7 43 -12q31 -6 56 -8q29 -5 57 -6q15 -2 49 -4q58 -5 109 -13q57 -10 105 -33q49 -25 80 -64q31 -40 31 -107q0 -42 -17 -76q-17 -32 -47 -59q-31 -26 -67 -42t-79 -27q-40 -10 -82 -15
q-36 -4 -76 -4q-45 0 -92 5q-43 5 -80 15q-42 12 -76 24q-48 17 -80 31l-8 3l45 83l10 -5q8 -3 12 -5z" />
    <glyph glyph-name="uni0074" unicode="t" horiz-adv-x="966" 
d="M433 0v654h-289v90h678v-90h-289v-654h-100z" />
    <glyph glyph-name="uni0075" unicode="u" horiz-adv-x="998" 
d="M264 744v-432q0 -45 20 -87q19 -40 53 -69q31 -29 75 -46q43 -17 87 -17q43 0 88 17q43 17 75 46q33 30 52 69t19 87v432h100v-432q0 -69 -27 -126q-30 -59 -74 -98q-46 -40 -107 -63q-63 -23 -126 -23t-123 24q-59 22 -107 65q-46 40 -75 98q-29 56 -29 123v432h99z" />
    <glyph glyph-name="uni0076" unicode="v" horiz-adv-x="1050" 
d="M253 744l274 -602l272 602h107l-324 -720q-7 -12 -18 -25q-11 -10 -37 -10q-22 0 -34 12q-13 12 -18 23l-331 720h109z" />
    <glyph glyph-name="uni0077" unicode="w" horiz-adv-x="1215" 
d="M401 19q-8 -14 -20 -22q-14 -8 -33 -8q-26 0 -39 13q-12 12 -17 28l-148 714h101l120 -586l243 465l244 -465l119 586h100l-147 -714q-3 -14 -17 -28q-14 -13 -40 -13q-19 0 -33 8q-13 9 -19 22l-207 402z" />
    <glyph glyph-name="uni0078" unicode="x" horiz-adv-x="930" 
d="M465 299l-243 -299h-119l303 373l-303 371h119l243 -298l242 298h120l-302 -371l302 -373h-120z" />
    <glyph glyph-name="uni0079" unicode="y" horiz-adv-x="1008" 
d="M504 338l255 406h115l-217 -341q-7 -11 -29 -43q-4 -6 -14 -18.5t-14 -19.5q-14 -19 -24 -37q-14 -22 -23 -45v-7v-25v-77v-123v-8h-99v8v123v77v25v7q-7 18 -22 45q-7 13 -25 37q-4 7 -13 19t-14 19q-22 32 -29 43l-217 341h114z" />
    <glyph glyph-name="uni007A" unicode="z" horiz-adv-x="964" 
d="M155 654v90h608q30 0 44 -17q13 -17 13 -35q0 -7 -2 -17q-2 -7 -10 -16l-515 -568h524v-91h-615q-30 0 -43 18q-15 18 -15 35q0 18 13 31l515 570h-517z" />
    <glyph glyph-name="uni007B" unicode="{" horiz-adv-x="587" 
d="M473 -56h-202q-29 0 -43 17q-15 18 -15 35v331h-100v91h100v330q0 17 15 35q14 17 43 17h202v-91h-159v-675h159v-90z" />
    <glyph glyph-name="uni007C" unicode="|" horiz-adv-x="326" 
d="M113 -56v856h100v-856h-100z" />
    <glyph glyph-name="uni007D" unicode="}" horiz-adv-x="587" 
d="M113 -56v90h160v675h-160v91h203q30 0 44 -17q13 -16 13 -35v-330h100v-91h-100v-331q0 -18 -13 -35q-14 -17 -44 -17h-203z" />
    <glyph glyph-name="uni00A1" unicode="&#xa1;" horiz-adv-x="552" 
d="M144 704q0 16 14 33q13 16 41 16q31 0 43 -16q12 -17 12 -33q0 -12 -6 -24q-5 -12 -20 -20h21v-660h-100v660h23q-14 8 -21 21q-7 11 -7 23z" />
    <glyph glyph-name="uni00A3" unicode="&#xa3;" horiz-adv-x="918" 
d="M155 45q0 19 15 33q14 13 34 13h30v232h-90v91h90v89q0 39 17 84q16 42 50 77q35 37 82 58q47 22 110 22h143v-90h-143q-38 0 -67 -13q-30 -14 -50 -35q-22 -25 -31 -49q-11 -28 -11 -54v-89h247v-91h-247v-232h439v-91h-569q-25 0 -37 16q-12 15 -12 29z" />
    <glyph glyph-name="uni00A5" unicode="&#xa5;" horiz-adv-x="1007" 
d="M454 240q0 1 -2 3q-1 4 -6 10l-3 6q-1 2 -4 5h-242v90h185l-248 390h114l256 -406l255 406h115l-247 -390h182v-90h-241q-2 -4 -3 -5t-2 -3t-2 -3q-6 -6 -8 -14v-7v-4h256v-91h-256v-137h-99v137h-257v91h257v12z" />
    <glyph glyph-name="uni00A6" unicode="&#xa6;" horiz-adv-x="326" 
d="M113 415v385h100v-385h-100zM113 -56v385h100v-385h-100z" />
    <glyph glyph-name="uni00A9" unicode="&#xa9;" horiz-adv-x="1049" 
d="M935 375q0 -85 -34 -154q-35 -72 -91 -122q-55 -50 -131 -80q-71 -29 -154 -29t-154 29q-77 29 -132 80q-56 50 -91 122t-35 154q0 84 34 153q34 70 91 121q58 52 132 80q72 28 155 28q82 0 156 -28q73 -28 131 -80q56 -51 90 -121q33 -70 33 -153zM214 375
q0 -51 22 -102q20 -51 62 -94q40 -43 98 -70q57 -27 129 -27q62 0 116 22q57 23 99 62q43 40 68 93q25 51 25 116t-25 116q-26 54 -67 92t-98 61q-54 22 -118 22q-70 0 -130 -26q-57 -26 -98 -69q-40 -41 -61 -93q-22 -51 -22 -103zM687 500l11 -13l-73 -65l-8 7
q-21 21 -39 32q-20 12 -49 12q-22 0 -43 -8q-19 -9 -33 -23q-13 -13 -21 -31q-7 -17 -7 -36q0 -17 8 -35q8 -19 21 -32q14 -15 33 -24t42 -9q29 0 49 12q15 8 38 31l8 8l73 -66l-5 -5q-15 -16 -32 -29q-13 -11 -36 -23q-20 -11 -42 -15q-24 -6 -53 -6q-51 0 -88 18
q-41 19 -65 46q-26 26 -40 62t-14 67q0 34 13 67q13 34 40 62q24 27 65 46q39 17 89 17q51 0 91 -18t67 -49z" />
    <glyph glyph-name="guillemotleft" unicode="&#xab;" horiz-adv-x="501" 
d="M184 529h133l-169 -174l168 -174h-132l-160 163v21zM348 528h133l-169 -174l169 -174h-133l-159 163v22z" />
    <glyph glyph-name="uni00AE" unicode="&#xae;" horiz-adv-x="609" 
d="M429 576q0 -27 -11 -51q-11 -25 -30 -41q-21 -18 -43 -26q-23 -10 -51 -10q-55 0 -93 38q-19 16 -29 41q-11 27 -11 49q0 26 11 51q11 24 29 41q18 16 42 27q23 10 51 10t53 -9q23 -10 43 -27q18 -19 29 -41q10 -23 10 -52zM267 624h44q22 0 22 -19q0 -20 -22 -20h-44v39
zM476 577q0 37 -14 70q-15 32 -40 54q-26 23 -58 36t-69 13t-69 -13q-30 -12 -58 -37q-24 -21 -40 -55q-15 -31 -15 -68q0 -36 15 -68t41 -56q25 -23 58 -37q34 -14 68 -14q35 0 69 14q31 13 57 38q24 21 40 55q15 32 15 68zM340 549q17 8 28 23q11 14 11 33q0 33 -19 49
t-51 16h-61q-11 0 -19 -8t-8 -19v-154h46v54h23l39 -54h56z" />
    <glyph glyph-name="uni00AF" unicode="&#xaf;" horiz-adv-x="661" 
d="M113 543v89h435v-89h-435z" />
    <glyph glyph-name="uni00B0" unicode="&#xb0;" horiz-adv-x="626" 
d="M513 569q0 -32 -13 -64q-14 -33 -39 -60q-25 -29 -63 -45q-38 -18 -84 -18t-84 18q-39 17 -64 45q-26 27 -39 60q-14 34 -14 64t14 64q14 32 39 59q26 28 63 44q39 17 85 17q47 0 86 -17q34 -15 62 -43q23 -25 38 -59q13 -32 13 -65zM213 569q0 -15 8 -33q8 -19 21 -32
q15 -15 32 -23q18 -9 40 -9t40 9q16 8 31 23q11 11 20 31q7 15 7 34t-6 35q-7 16 -19 29q-14 14 -31 21q-19 8 -42 8q-22 0 -41 -8q-18 -7 -32 -21q-13 -13 -21 -30q-7 -15 -7 -34z" />
    <glyph glyph-name="uni00B1" unicode="&#xb1;" horiz-adv-x="859" 
d="M380 415v233h101v-233h266v-91h-266v-193h266v-90h-634v90h267v193h-267v91h267z" />
    <glyph glyph-name="uni00B4" unicode="&#xb4;" horiz-adv-x="483" 
d="M113 542l90 202h109l-90 -202h-109z" />
    <glyph glyph-name="uni00B7" unicode="&#xb7;" horiz-adv-x="491" 
d="M223 302q0 -17 -13 -33q-14 -17 -42 -17q-27 0 -41 17t-14 33t14 33t41 17q29 0 42 -16t13 -34z" />
    <glyph glyph-name="guillemotright" unicode="&#xbb;" horiz-adv-x="481" 
d="M357 355l-168 174h131l161 -164v-21l-161 -163h-131zM192 354l-168 174h133l159 -163v-22l-159 -163h-133z" />
    <glyph glyph-name="uni02DD" unicode="&#x2dd;" horiz-adv-x="660" 
d="M113 542l90 202h109l-90 -202h-109zM233 542l90 202h109l-90 -202h-109z" />
    <glyph glyph-name="uni0307" unicode="&#x307;" 
d="M-113 591q0 -16 -14 -32q-13 -16 -41 -16q-29 0 -42 16q-13 14 -13 32q0 17 12 34q13 16 43 16q28 0 42 -17q13 -16 13 -33z" />
    <glyph glyph-name="uni030B" unicode="&#x30b;" 
d="M-432 542l90 202h108l-90 -202h-108zM-313 542l89 202h110l-90 -202h-109z" />
    <glyph glyph-name="uni0312" unicode="&#x312;" 
d="M-224 590q0 9 2 29q2 10 6 32q3 11 7 31q2 7 7 29l1 7h72v-91q16 -15 16 -35q0 -16 -14 -33q-13 -16 -42 -16q-26 0 -41 15q-14 16 -14 32z" />
    <glyph glyph-name="uni0326" unicode="&#x326;" 
d="M-113 -50q0 -4 -1 -6q0 -1 -0.5 -3.5l-1 -5t-1 -6.5t-1.5 -7q-1 -11 -5 -33q-1 -6 -3.5 -19t-4.5 -19q-3 -20 -4 -22l-1 -7h-72v89q-10 7 -13 17q-3 11 -3 19q0 17 13 33t42 16q24 0 40 -15t16 -31z" />
    <glyph glyph-name="uni0335" unicode="&#x335;" 
d="M-508 231v90h395v-90h-395z" />
    <glyph glyph-name="uni0336" unicode="&#x336;" 
d="M-869 430v91h799v-91h-799z" />
    <glyph glyph-name="uni0337" unicode="&#x337;" 
d="M-796 0l568 744h117l-567 -744h-118z" />
    <glyph glyph-name="uni0338" unicode="&#x338;" 
d="M-796 0l568 744h117l-567 -744h-118z" />
    <glyph glyph-name="uni2013" unicode="&#x2013;" horiz-adv-x="656" 
d="M113 327v91h429v-91h-429z" />
    <glyph glyph-name="uni2014" unicode="&#x2014;" horiz-adv-x="1024" 
d="M113 327v91h798v-91h-798z" />
    <glyph glyph-name="uni2018" unicode="&#x2018;" horiz-adv-x="336" 
d="M115 637l2 5v2q1 2 1 6q3 26 7 39q1 6 4 19.5t4 19.5l3 16h73v-90q8 -8 11 -17t3 -17q0 -17 -13 -33q-14 -17 -42 -17q-32 0 -43 20q-10 19 -10 47z" />
    <glyph glyph-name="uni2019" unicode="&#x2019;" horiz-adv-x="336" 
d="M223 685q0 -5 -1 -6v-2q-1 -1 -1 -3l-20 -104h-72v90q-6 7 -11 17t-5 17q0 16 14 33t41 17q30 0 43 -15q12 -16 12 -44z" />
    <glyph glyph-name="uni201A" unicode="&#x201a;" horiz-adv-x="336" 
d="M223 32q0 -6 -1 -7q0 -3 -1 -4l-20 -104h-72v89q-6 7 -11 17q-5 12 -5 17q0 17 14 34t41 17q30 0 43 -15q12 -17 12 -44z" />
    <glyph glyph-name="uni201C" unicode="&#x201c;" horiz-adv-x="436" 
d="M115 637l2 5v2q1 2 1 6q3 26 7 39q1 6 4 19.5t4 19.5l3 16h73v-90q5 -5 7 -9q1 7 4 23t5 23q1 8 4 23t5 23l1 7h73v-90q15 -14 15 -34q0 -17 -13 -33q-14 -17 -42 -17q-17 0 -30 7q-15 8 -19 23q-5 -12 -18 -21t-33 -9q-32 0 -43 20q-10 19 -10 47z" />
    <glyph glyph-name="uni201D" unicode="&#x201d;" horiz-adv-x="426" 
d="M218 658l-17 -88h-72v90q-6 7 -11 17t-5 17q0 16 14 33t41 17q32 0 46 -20q15 20 44 20q17 0 29 -5q10 -4 17 -13q7 -10 8 -18q2 -14 2 -19q0 -3 -2 -9q0 -1 -2 -7q0 -3 -2 -9t-2 -9t-2 -10t-2 -10q0 -4 -1.5 -14t-2.5 -15q-2 -16 -6 -29l-1 -7h-73v88z" />
    <glyph glyph-name="uni201E" unicode="&#x201e;" horiz-adv-x="436" 
d="M219 62q5 11 18 20q12 9 31 9q16 0 28 -5q11 -6 17 -14q7 -8 8 -18q2 -14 2 -18q0 -8 -3 -15l-20 -104h-72v89q-7 7 -8 10l-19 -99h-72v89q-6 7 -11 17q-5 12 -5 17q0 17 14 34t41 17q16 0 30 -6q14 -8 21 -23z" />
    <glyph glyph-name="uni2026" unicode="&#x2026;" horiz-adv-x="1029" 
d="M761 40q0 -17 -13 -33q-13 -17 -42 -17q-32 0 -42 17q-12 17 -12 33q0 18 12 34q11 17 42 17q28 0 42 -17q13 -16 13 -34zM493 40q0 -17 -13 -33q-13 -17 -43 -17q-27 0 -41 17t-14 33q0 17 14 34t41 17q32 0 44 -16q12 -17 12 -35zM223 40q0 -17 -13 -33
q-13 -17 -42 -17q-27 0 -41 17t-14 33q0 17 14 34t41 17q31 0 43 -16t12 -35z" />
    <glyph glyph-name="uni2039" unicode="&#x2039;" horiz-adv-x="358" 
d="M184 529h133l-169 -174l168 -174h-132l-160 163v21z" />
    <glyph glyph-name="uni203A" unicode="&#x203a;" horiz-adv-x="357" 
d="M192 355l-168 174h133l159 -164v-21l-159 -163h-133z" />
    <glyph glyph-name="uni2044" unicode="&#x2044;" horiz-adv-x="272" 
d="M-206 0l569 744h115l-567 -744h-117z" />
    <glyph glyph-name="Euro" unicode="&#x20ac;" horiz-adv-x="815" 
d="M574 371l-33 -90h-290q13 -39 42 -75q25 -34 65 -64q35 -26 86 -44q49 -17 103 -17q27 0 64 5q31 4 56 19l12 7l31 -94l-9 -2q-23 -4 -39 -9q-24 -6 -35 -9q-18 -5 -37 -6q-26 -2 -43 -2q-67 0 -131 21q-62 19 -117 58q-53 38 -92 92q-38 53 -58 120h-46v90h33v8h-33v90
h46q15 52 50 107q33 51 83 92q47 39 117 65q66 24 148 24q41 0 83 -6q44 -8 76 -25l6 -3l-30 -80l-10 2q-4 1 -14.5 3.5t-16.5 4.5q-13 4 -32 7q-20 4 -30 5q-22 2 -32 2q-59 0 -104 -16q-48 -17 -84 -43q-37 -28 -64 -64t-42 -75h361l-35 -90h-342v-3q-1 -1 -1 -4z" />
    <glyph glyph-name="uni2122" unicode="&#x2122;" horiz-adv-x="943" 
d="M730 392v183l-86 -102l-84 101v-182h-99v304q0 17 13 33q14 17 42 17q16 0 27 -6q12 -10 17 -15l85 -100l86 100q10 10 17 15q10 6 27 6q31 0 43 -16t12 -34v-304h-100zM449 654h-118v-262h-100v262h-118v90h336v-90z" />
    <glyph glyph-name="uni2212" unicode="&#x2212;" horiz-adv-x="825" 
d="M113 324v91h599v-91h-599z" />
    <glyph glyph-name="uni2260" unicode="&#x2260;" horiz-adv-x="825" 
d="M712 249h-321l-107 -139h-122l107 139h-156v91h225l60 77h-285v91h354l76 100h122l-77 -100h124v-91h-192l-59 -77h251v-91z" />
    <glyph glyph-name="uni2264" unicode="&#x2264;" horiz-adv-x="823" 
d="M710 143l-620 182q-21 6 -29 20q-9 13 -9 28q0 13 9 27q8 13 29 19l620 188v-104l-445 -129l445 -126v-105zM77 41v90h633v-90h-633z" />
    <glyph glyph-name="uni2265" unicode="&#x2265;" horiz-adv-x="823" 
d="M558 374l-445 129v104l619 -188q22 -6 31 -18q8 -13 8 -28q0 -14 -8 -28q-10 -14 -31 -20l-619 -182v105zM747 41h-634v90h634v-90z" />
    <glyph glyph-name="_FSHallmark" horiz-adv-x="754" 
d="M619 388q0 9 -5 17q-4 5 -14 13q-12 6 -18 8q-14 2 -18 2q-20 0 -36 -9q-16 -10 -16 -22q0 -23 14 -31q16 -9 34 -13l27 -6q16 -4 23 -6q13 -4 22 -5q7 -1 19 -5q2 -2 8 -4.5t8 -3.5q15 -9 24 -21q7 -14 9 -33q1 -21 -8 -38q-20 -32 -55 -44q-37 -12 -72 -12q-27 0 -51 7
t-44 21t-32 36q-12 21 -12 49l73 -1q0 -3 3 -11q2 -12 11 -20q9 -9 19 -13q13 -7 36 -7q25 0 40 9q15 7 15 19q0 22 -60 36q-56 14 -92 33q-38 20 -38 63q0 36 25 57q24 20 55 30q24 6 52 6q36 0 72 -14q33 -14 50 -50q8 -21 8 -37h-76zM329 213q0 16 11 27q10 10 27 10
q16 0 30 -11q12 -11 12 -26t-12 -26q-13 -10 -30 -10q-15 0 -26 11q-12 11 -12 25zM701 529h-630v74h630v-74zM305 277h-151v-102h-83v313h265v-71h-182v-70h151v-70zM700 61h-631v75h631v-75z" />
    <glyph glyph-name="_Fontastica" horiz-adv-x="754" 
d="M216 53v1q0 6 -3 10q-4 4 -11 4q-1 -1 -3 -1q-4 -1 -8 -7t-1 -11q3 -10 13 -10q3 0 4 1q9 2 9 13zM369 49h15l-1 2q-1 1 -1 2t-1 2t-1 2q-1 1 -1 4q-1 0 -1 2q0 1 -1 2zM627 49h14q-1 1 -1 4q0 1 -1 2t-1 2t-1 2t-1 2l-1 2q-1 1 -1 2zM203 76q15 0 22 -12q6 -8 2 -20
q-5 -12 -19 -13l-6 -2q-6 0 -9 3q-14 6 -14 19q0 11 7 18q6 7 17 7zM279 76h9v-44h-3q-1 -1 -3 -1t-7 5q-1 1 -2.5 3t-1.5 3q-1 1 -2 3t-2 3q-8 10 -9 11v-27h-10v44h8q3 -1 5 -6q7 -7 10 -11q7 -12 8 -13v30zM372 74h10q2 -5 5 -10t5 -10q0 -1 1.5 -5t2.5 -6t2.5 -6t1.5 -5
h-10q-1 1 -1 4l-1 2q0 2 -1 3h-20q-1 -1 -1 -5q-1 -1 -1 -2l-2 -2h-9zM444 55q9 -1 9 -10q1 -9 -8 -13q-1 -1 -8 -1q-14 0 -21 7q1 1 1 2l1 1q0 2 1 3l14 -4h6q3 3 3 2q0 8 -10 9q-1 0 -2 1t-4 1q-7 1 -7 10q-1 7 6 11q6 2 10 2q11 0 18 -4l-4 -8q-1 1 -3 1q-1 0 -2 1t-3 1
q-1 0 -2 1h-6q-3 0 -3 -3q-2 -1 3 -6q5 -1 11 -4zM569 63q-5 -3 -5 -8q0 -7 4 -11q3 -4 9 -4q7 0 14 4l4 -4q-6 -9 -18 -9q-8 0 -16 5q-6 8 -7 16q-1 10 6 17q8 8 17 8q10 0 18 -8l-4 -6l-2 1l-3 3t-7 1h-2q-6 -2 -8 -5zM628 76h12l9 -21q1 -4 5 -12q1 -6 5 -11h-10l-4 9
h-21l-4 -9h-10q11 21 18 44zM513 260h-295v-147h-87q-1 1 -1 4v510h382v-78h-294v-210h295v-79zM569 402h-296v79h296v146h87v-513h-383v78h296v210zM142 32h-11v44h32v-8h-21v-12h20v-7h-20v-17zM321 68h-14v8h37v-8h-14v-36h-9v36zM482 68h-14v8h38v-8h-14v-36h-10v36z
M535 32h-11v44h11v-44z" />
    </font>
</defs>
</svg>
